<svg width="172" height="40" viewBox="0 0 172 40" fill="none" xmlns="http://www.w3.org/2000/svg">
<path d="M27.9245 38.4271H36.6906L28.177 1.57166H18.1918L0.852966 38.4271H10.1251L13.1309 31.2453H26.4006L27.9245 38.4271ZM16.5302 23.1217L21.8788 10.34H21.963L24.6765 23.1217H16.5302Z" fill="#EBEBEB"/>
<path d="M63.8804 29.851H37.9757L36.6906 38.4271H62.593L63.8804 29.851ZM66.8338 10.1455H40.9303L42.2165 1.57166H68.1201L66.8338 10.1455ZM61.6047 24.2863H38.8093L40.0967 15.7125H62.8921L61.6047 24.2863Z" fill="#EBEBEB"/>
<path d="M92.4258 28.9775C89.9545 30.1182 86.2652 30.3047 84.457 30.3047C78.625 30.3047 74.764 26.3266 74.9596 20.4139C75.1679 14.1703 79.8874 9.69398 86.2971 9.69398C89.3279 9.69398 91.9948 10.6948 94.3876 12.7168L96.1617 3.89278C92.5009 1.73651 89.4291 0.852905 85.5931 0.852905C74.9812 0.852905 66.2243 9.694 65.8547 20.8017C65.4976 31.575 72.5009 39.147 82.9035 39.147C84.7117 39.147 88.6251 38.9581 91.0929 37.8186L92.4258 28.9775Z" fill="#EBEBEB"/>
<path d="M114.455 0.941515C124.311 1.64207 130.409 9.66553 129.31 20.3911C128.171 31.4454 119.252 39.6747 109.193 38.957C99.3336 38.2565 93.2367 30.233 94.3387 19.5075C95.4737 8.45434 104.393 0.223908 114.455 0.941515ZM120.54 21.2873C121.88 15.0562 119.56 10.2023 114.851 9.24242C109.675 8.18023 104.968 12.1448 103.548 18.7296C102.205 24.9618 104.525 29.8145 109.235 30.7789C114.415 31.8343 119.121 27.8721 120.54 21.2873Z" fill="#EBEBEB"/>
<path d="M170.238 38.427L169.562 1.56934H161.252L150.614 22.3597L146.32 1.56934H138.019L126.568 38.427H135.728L141.96 16.8485L145.875 38.427H150.544L161.344 16.8576L161.216 38.427H170.238Z" fill="#EBEBEB"/>
</svg>
