<svg width="256" height="40" viewBox="0 0 256 40" fill="none" xmlns="http://www.w3.org/2000/svg">
<g clip-path="url(#clip0_2715_269)">
<path d="M23.8208 0.635202C-10.2272 2.1584 2.79518 39.4928 2.79518 39.4928C5.78078 36.2544 15.3088 28.5712 28.712 28.5072H28.776C35.256 28.5072 39.0672 33.968 37.6064 39.4288C37.6064 39.4288 47.6432 27.6192 42.0528 14.2224C40.2112 9.7776 35.192 6.4128 29.2848 6.4128C27.1735 6.4253 25.0833 6.83454 23.1232 7.6192C18.232 9.5872 17.5328 14.032 18.5488 16.1264C19.3104 17.6512 20.7728 18.3504 22.296 18.3504C22.552 18.3504 22.8048 18.3504 23.1232 18.2864C28.0768 17.5232 30.0464 15.2384 31.1904 15.2384C31.3808 15.2384 31.5072 15.3024 31.6352 15.3664C32.3328 15.936 31.6992 18.2224 25.3472 20.7616C23.8208 21.3968 21.0272 22.096 18.232 22.096C14.992 22.096 11.816 21.1424 10.7984 17.84C8.83038 11.8096 15.944 4.5712 26.616 3.7456C27.1248 3.6816 27.8864 3.6816 28.3952 3.6816C33.7952 3.6816 37.7328 6.096 39.6384 7.7456C37.4144 4.064 32.7776 0.635202 25.2816 0.507202C25.2816 0.699202 24.6464 0.635202 23.8208 0.635202Z" fill="#E76A25"/>
<path d="M93.7599 8.88954V21.4607H104.306C108.88 21.4607 110.914 18.5391 110.914 15.3007C110.914 12.1903 108.88 8.95194 104.306 8.95194H93.7616V8.88794L93.7599 8.88954ZM118.09 38.4127H111.61L101.066 26.4767H93.7599V38.4127H88.2335V3.80794H104.37C112.373 3.80794 116.566 9.26874 116.566 15.1087C116.566 20.0623 114.026 24.8879 107.165 25.9023L118.09 38.4127ZM187.712 33.0799H195.334C203.782 33.0799 207.341 26.8559 207.214 20.7615C207.086 14.9215 203.53 9.07994 195.334 9.07994H187.712V33.0799ZM195.334 3.80954C207.15 3.80954 212.55 12.2543 212.678 20.8255C212.867 29.5871 207.405 38.4127 195.334 38.4127H182.25V3.80794L195.334 3.80954ZM216.933 3.80954H222.395V38.4127H216.933V3.80954ZM249.902 11.4927C248.25 9.14234 244.947 7.68314 241.326 7.61914C236.69 7.61914 233.322 9.52314 233.322 12.8895C233.322 16.2543 237.197 17.2063 241.707 17.8415C248.822 18.8575 255.619 20.8255 255.619 28.5711C255.555 36.3167 248.504 39.2383 241.262 39.2383C234.656 39.2383 229.51 37.2063 226.398 31.3663L230.526 28.5711C233.005 32.7631 237.325 34.2863 241.326 34.2863C245.454 34.2863 250.093 32.8895 250.093 28.5711C250.093 24.8255 246.09 23.5551 241.262 22.8575C234.402 21.9039 227.859 20.1903 227.859 12.7615C227.795 5.58714 234.974 2.85754 241.198 2.85754C246.218 2.85754 251.173 4.06394 254.094 8.69754L249.902 11.4927ZM86.328 38.4127L70.7647 3.80954H64.7311L49.2303 38.4127H55.0751L67.7791 9.65114L75.0208 26.0959H63.5231L61.3007 31.1743H77.2447L80.4207 38.4127H86.328ZM164.781 3.80954H158.746L148.645 26.2863C147.565 28.4447 146.357 29.7775 145.978 30.2223C143.563 32.6351 140.006 33.9679 136.83 33.9679C127.874 33.9679 124.126 27.6831 124.062 21.3327C123.998 14.9839 128 8.50714 136.83 8.50714C140.069 8.50714 143.31 9.65114 145.787 12.0639L149.47 8.50714C145.978 5.01594 141.467 3.23834 136.83 3.23834C124.443 3.23834 118.534 12.2543 118.598 21.3967C118.662 30.4767 124.315 39.1743 136.83 39.1743C141.658 39.1743 146.294 37.5231 149.853 34.0319C149.853 34.0319 152.077 31.8095 153.474 28.5711L153.918 27.5551L154.934 25.2703L161.795 9.71354L169.037 26.1583H157.6L155.376 31.1743H171.258L174.434 38.4127H180.342L164.781 3.80954Z" fill="#F6F6F6"/>
</g>
<defs>
<clipPath id="clip0_2715_269">
<rect width="256" height="40" fill="white"/>
</clipPath>
</defs>
</svg>
