<svg width="130" height="40" viewBox="0 0 130 40" fill="none" xmlns="http://www.w3.org/2000/svg">
<path d="M11.9395 25.0236L8.59031 34.9856C8.48902 35.7108 8.65434 36.2921 9.08098 36.7134C9.73165 37.3694 10.7128 37.7107 12.0248 37.7373V37.9933H1.16687V37.7373C3.45472 37.5827 4.84671 36.7881 5.3479 35.3482L16.8457 1.13208L31.01 35.5402C31.5166 36.8521 32.7806 37.5827 34.7857 37.7373L34.8284 37.9933H23.6293V37.7373C24.8079 37.7373 25.6612 37.412 26.1891 36.7561C26.4824 36.5054 26.5624 36.0628 26.4236 35.4335C25.5704 33.2737 24.1466 29.8019 22.1573 25.0236H11.9395ZM12.6647 22.8478H21.2187L16.6111 11.3073L12.6647 22.8478ZM105.5 4.22519V4.0332C113.079 4.00654 117.916 4.12386 120.006 4.3745C121.707 4.57716 123.296 5.22243 124.763 6.3157C126.24 7.41427 127.28 8.7635 127.877 10.3687C128.256 11.4246 128.453 12.5392 128.453 13.7178C128.453 16.139 127.718 18.1868 126.256 19.8613C124.347 21.9519 122.113 22.9971 119.558 22.9971C118.619 22.9971 117.686 22.8371 116.764 22.5065C116.038 22.2558 115.676 22.0105 115.676 21.7812C117.452 21.8399 118.684 21.7919 119.366 21.6319C120.545 21.3386 121.638 20.6879 122.651 19.6907C123.67 18.6828 124.299 17.5735 124.528 16.3629C124.651 15.8137 124.72 15.2537 124.72 14.6991C124.72 11.6166 123.361 9.19013 120.646 7.42494C119.409 6.60366 117.932 6.18771 116.23 6.18771C115.276 6.18771 114.369 6.34236 113.521 6.63567V34.7082C113.521 36.4041 114.662 37.412 116.956 37.7373V37.9933H105.607V37.7373C107.239 37.5134 108.359 36.8787 108.956 35.8388C109.154 35.4442 109.255 34.1483 109.255 31.9564V6.93431C109.255 5.58508 108.396 4.73181 106.695 4.3745C106.423 4.34784 106.023 4.29984 105.5 4.22519ZM49.9739 4.0332C51.8351 4.0332 53.6003 4.60382 55.2642 5.73974C56.9387 6.86498 58.144 8.3102 58.8693 10.0701C59.3226 11.222 59.5519 12.4539 59.5519 13.7605C59.5519 16.2509 58.7946 18.2988 57.2907 19.904C56.5761 20.6879 55.6429 21.4292 54.4962 22.1225C56.9547 25.1943 60.3946 29.3433 64.8208 34.5589C66.3247 36.3508 68.3513 37.22 70.9004 37.1614C70.943 37.1934 70.9643 37.2574 70.9643 37.3534C69.9831 37.908 68.8258 38.1853 67.5086 38.1853C65.8447 38.1853 64.3835 37.78 63.1357 36.9694C61.1998 35.6948 59.1839 33.7216 57.0988 31.0605C53.7283 26.6715 52.0058 24.4423 51.9364 24.3837C50.8539 23.1784 49.5953 22.4372 48.1607 22.1652V21.9732C50.8433 22.2025 52.9444 21.4132 54.4536 19.6054C55.4882 18.3735 56.0108 16.7682 56.0108 14.8057C56.0108 13.8138 55.8669 12.8752 55.5842 11.9899C55.1149 10.5874 54.2349 9.34481 52.9603 8.27821C51.6912 7.21696 50.3313 6.58766 48.8861 6.40102C47.3181 6.16103 46.0435 6.25704 45.0676 6.67833V34.9002C45.1477 35.5828 45.5262 36.1908 46.1982 36.7134C46.7476 37.1721 47.3821 37.4707 48.0967 37.6094L49.078 37.7373V37.9933H37.2389V37.7373C39.0414 37.5134 40.2093 36.8414 40.7373 35.7322L40.8866 34.7936V7.08364C40.8866 5.90505 40.2093 5.06778 38.8601 4.5665C38.3322 4.41182 37.6282 4.29984 36.7482 4.22519V4.0332H49.9739ZM100.21 4.22519C97.8478 4.55582 96.5785 5.3611 96.4132 6.63567V27.8608C96.2532 29.8979 95.5439 31.8125 94.28 33.599C93.0107 35.3802 91.4321 36.7454 89.5443 37.6947C87.9658 38.4733 86.1793 38.8679 84.19 38.8679C81.6569 38.8679 79.4704 38.26 77.6412 37.0547C73.8122 34.5962 71.9029 31.1405 71.9029 26.6875V6.89165C71.9029 5.89973 71.3111 5.12112 70.1325 4.5665C69.9884 4.53982 69.3271 4.42782 68.1485 4.22519V3.99054H79.7957V4.18252C77.6038 4.3425 76.356 5.14778 76.0626 6.593V27.7114C76.0626 31.0552 77.4706 33.583 80.2864 35.2842C81.561 36.0841 83.0594 36.4788 84.766 36.4788C86.9259 36.4788 88.8723 35.7055 90.6109 34.1536C92.3441 32.5911 93.2346 30.7299 93.2774 28.5647L93.32 24.6183V7.12631C93.32 6.02238 92.6748 5.20111 91.4002 4.67315C91.1442 4.57716 90.4882 4.42782 89.4377 4.22519V3.99054H100.21V4.22519Z" fill="#E4E4E4"/>
</svg>
