<svg width="120" height="90" viewBox="0 0 120 90" fill="none" xmlns="http://www.w3.org/2000/svg">
<g clip-path="url(#clip0_2715_290)">
<path d="M63.9417 39.8048L58.9917 41.553V31.8263L53.4983 33.7658V58.7532L58.9894 56.8103V46.7978L63.9394 45.0495V55.062L69.4317 53.1226V28.1385L63.9394 30.078L63.9417 39.8048Z" fill="#F4F4F4"/>
<path d="M72.1327 32.3775L76.9522 30.6754V50.4101L82.4444 48.4706V28.7359L87.2628 27.0338V21.7856L72.1327 27.1226V32.3775Z" fill="#F4F4F4"/>
<path d="M111.975 32.4788V12.7395L106.482 14.679V39.6675L119.402 35.1056V29.8564L111.975 32.4788Z" fill="#F4F4F4"/>
<path d="M13.0646 60.822C14.2807 59.1824 14.9427 57.1979 14.9546 55.1565C14.9602 54.0743 14.6689 50.7555 11.754 49.9815C10.4607 49.7291 9.12279 49.8397 7.8885 50.301L0 53.0877V78.0739L10.4265 74.3929C11.935 73.9287 13.2682 73.0198 14.2515 71.7852C15.4354 70.0969 16.0799 68.0894 16.0999 66.0274C16.1145 63.7527 15.1515 61.3587 13.0624 60.822M5.49787 56.3974C5.49787 56.3974 7.71075 55.566 8.23162 55.4029C9.64125 54.9237 10.1565 56.2917 10.1588 57.2457C10.1748 57.882 9.99163 58.5074 9.63481 59.0344C9.27798 59.5615 8.76536 59.9639 8.16862 60.1853C7.812 60.318 5.49675 61.1292 5.49675 61.1292L5.49787 56.3974ZM9.19013 69.5835L5.49787 70.8863V65.5785L8.67825 64.4535C9.96862 63.9664 10.98 64.9125 10.98 66.4549C11.0627 67.0997 10.9326 67.7538 10.6096 68.3179C10.2865 68.882 9.78811 69.3252 9.19013 69.5802" fill="#F4F4F4"/>
<path d="M90.2351 45.81L103.455 41.1412V35.8931L95.7274 38.6212V33.3135L101.665 31.2165V26.514L95.7285 28.611V24.1312L103.456 21.4031V16.1527L90.2362 20.8215L90.2351 45.81Z" fill="#F4F4F4"/>
<path d="M19.3027 70.9076L32.5226 66.2388V60.9907L24.7949 63.7188V58.4122L30.7282 56.3107V51.6116L24.7916 53.7086V49.2288L32.5192 46.5007V41.2515L19.2993 45.9202L19.3027 70.9076Z" fill="#F4F4F4"/>
<path d="M50.2752 50.5439L45.3792 52.2731V54.8853C45.4026 55.6018 45.1895 56.306 44.7726 56.8892C44.3557 57.4724 43.7584 57.9021 43.0729 58.1118C41.6903 58.6079 40.8983 58.1332 40.8983 56.7674V44.9549C40.8979 44.2467 41.1266 43.5573 41.5501 42.9896C41.9737 42.4219 42.5694 42.0063 43.2484 41.8049C44.6704 41.3054 45.3769 41.7926 45.3803 43.2562V45.9157L50.2763 44.1888V41.6013C50.2651 37.9698 48.3638 35.9932 45.1857 36.3138C44.4212 36.4191 43.668 36.5946 42.9357 36.8381C40.7547 37.5246 38.8493 38.8883 37.496 40.7312C36.1426 42.5741 35.4118 44.8004 35.4094 47.0868V58.0893C35.4207 61.8018 37.6324 63.9776 40.9872 63.6367C41.7343 63.5538 42.4689 63.382 43.1753 63.1248C45.2364 62.4806 47.0376 61.1942 48.3158 59.4536C49.5939 57.713 50.282 55.6093 50.2797 53.4498L50.2752 50.5439Z" fill="#F4F4F4"/>
<path d="M56.4941 6.84118C66.1389 6.82795 75.4135 10.5535 82.3691 17.2351L89.4566 14.7319C83.6103 8.20123 75.9559 3.55429 67.4645 1.38068C58.973 -0.792925 50.0273 -0.395235 41.7623 2.5233C33.4972 5.44183 26.2854 10.7497 21.0417 17.7734C15.798 24.7971 12.7588 33.2201 12.3097 41.9738L19.3972 39.4707C20.5596 30.453 24.9666 22.1673 31.7943 16.1629C38.622 10.1584 47.4029 6.84627 56.4952 6.84568" fill="#FF2800"/>
<path d="M58.5102 83.1589C48.7747 83.1712 39.4207 79.3741 32.4484 72.5794L25.3789 75.0758C31.2163 81.673 38.8903 86.3775 47.4178 88.5867C55.9454 90.7958 64.9382 90.4091 73.2446 87.4759C81.551 84.5428 88.7927 79.1968 94.0422 72.1228C99.2916 65.0487 102.31 56.5686 102.71 47.7687L95.6453 50.2628C94.5433 59.3361 90.1573 67.692 83.3157 73.7527C76.4741 79.8133 67.6502 83.1594 58.5102 83.1589Z" fill="#FF2800"/>
</g>
<defs>
<clipPath id="clip0_2715_290">
<rect width="119.402" height="90" fill="white"/>
</clipPath>
</defs>
</svg>
