<svg width="100" height="100" viewBox="0 0 100 100" fill="none" xmlns="http://www.w3.org/2000/svg">
<path d="M64.4171 48.589C64.3864 62.6227 54.003 72.8681 39.6932 72.8681H33.8496V63.7577H39.6932C48.7729 63.7577 55.1226 57.4847 55.138 48.5737C55.1226 39.6473 48.7729 33.4356 39.6932 33.4356H33.8496V24.3252H39.6932C54.003 24.3252 64.3864 34.5092 64.4171 48.543V48.589ZM64.4018 33.0522H75.5674C78.9417 33.0522 81.2116 33.7424 82.8527 35.3375C84.3558 36.7792 85.1226 38.6964 85.1226 40.8436C85.1226 45.7516 80.8128 48.6657 76.0122 48.6657H73.2208L69.9539 55.5982L88.2055 74.1872L95.3067 68.3283L82.3772 55.5215C89.5245 54.2178 94.4018 47.7915 94.4018 41.043C94.4018 35.9816 92.9447 32.0859 89.2637 28.6964C85.4601 25.1841 81.2269 24.3252 74.8619 24.3252H64.4018V33.0522ZM34.1104 43.727H13.3128V24.3252H3.29749V72.8681H13.3128V53.4356H34.1104V43.727Z" fill="#E2E2E2"/>
</svg>
