<svg width="173" height="40" viewBox="0 0 173 40" fill="none" xmlns="http://www.w3.org/2000/svg">
<g clip-path="url(#clip0_2715_176)">
<path d="M159.351 39.9999C166.505 39.9999 171.49 36.3148 171.49 30.9476C171.49 26.343 168.779 23.6284 163.087 22.439L159.511 21.6801C157.723 21.3043 156.749 20.487 156.749 19.4581C156.749 18.0533 158.103 17.185 160.328 17.185C162.817 17.185 165.203 17.8855 168.023 19.5128L170.461 13.9304C167.914 12.0878 164.444 11.0589 160.598 11.0589C153.604 11.0589 149.05 14.6346 149.05 20.2206C149.05 24.6647 151.707 27.2661 157.347 28.4009L160.649 29.1051C162.871 29.594 163.63 30.2471 163.63 31.5423C163.63 32.9544 162.061 33.768 159.241 33.768C156.91 33.768 153.494 32.5202 150.623 30.6265L148.24 36.2637C150.678 38.5404 154.906 39.9451 159.351 39.9999ZM131.978 33.2244C128.02 33.2244 125.477 30.3529 125.477 25.5294C125.477 20.7059 128.02 17.8308 131.978 17.8308C135.937 17.8308 138.48 20.7059 138.48 25.5294C138.48 30.3529 135.937 33.2244 131.978 33.2244ZM133.766 39.9999C140.323 39.9999 146.175 34.6911 146.175 25.5294C146.175 16.6413 140.867 11.0589 134.036 11.0589C130.351 11.0589 127.534 12.6315 125.801 15.2329V-0.000118256H118.322V31.5971C118.322 34.2022 118.212 36.4789 117.997 39.241H125.039C125.148 38.1573 125.258 37.0226 125.312 35.7748C127.319 38.5915 130.406 39.9999 133.766 39.9999ZM100.487 33.2244C96.532 33.2244 93.9852 30.3529 93.9852 25.5294C93.9852 20.7059 96.532 17.8308 100.487 17.8308C104.446 17.8308 106.996 20.7059 106.996 25.5294C106.996 30.3529 104.446 33.2244 100.487 33.2244ZM100.217 39.9999C108.675 39.9999 114.691 34.4175 114.691 25.5294C114.691 16.6413 108.945 11.0589 100.487 11.0589C92.1974 11.0589 86.2866 17.1302 86.2866 25.5294C86.2866 34.1438 91.9237 39.9999 100.217 39.9999ZM75.6107 39.9999C79.3469 39.9999 83.1998 38.701 85.5277 36.5848L82.8204 30.8965C80.7589 32.1954 78.1063 33.0638 76.0449 33.0638C71.8124 33.0638 69.1088 30.1923 69.1088 25.5294C69.1088 21.0306 71.7614 17.995 76.4207 17.995C78.3763 17.995 80.6495 18.8633 82.5467 20.1112L85.5277 14.2004C83.1451 12.1425 79.8942 11.0589 76.2601 11.0589C66.8831 11.0589 61.4102 17.7213 61.4102 25.5294C61.4102 34.4175 66.8284 39.9999 75.6107 39.9999ZM50.5154 29.324C50.5154 32.9544 47.425 34.1438 44.933 34.1438C42.3862 34.1438 40.9742 33.1733 40.9742 31.1118C40.9742 29.324 42.1162 28.0251 45.2066 27.8609L50.5154 27.5872V29.324ZM51.7595 39.241H58.8087C58.2651 36.9679 57.8856 33.2244 57.8856 30.6265V21.899C57.8856 15.1782 53.7116 11.0589 46.345 11.0589C38.3727 11.0589 34.9065 16.0977 34.3665 20.1112H41.4084C41.8462 18.3197 43.4151 17.185 46.1224 17.185C48.7823 17.185 50.5154 18.5386 50.5154 21.2495V22.3879L43.6851 22.7126C36.4754 23.0921 33.5492 26.7225 33.5492 31.5971C33.5492 36.8584 37.2891 39.9999 42.9809 39.9999C47.2097 39.9999 49.9206 37.9457 51.2743 36.2637C51.3837 37.3984 51.599 38.482 51.7595 39.241ZM22.3333 15.0177H30.2435V-0.000118256H14.7989V7.47959H22.3333V15.0177ZM14.9594 39.9999C24.0664 39.9999 30.2435 33.6075 30.2435 24.7157V20.0017H22.3333V24.7157C22.3333 29.3787 19.4582 32.4144 14.9594 32.4144C10.7306 32.4144 8.29335 29.7545 7.85916 26.0183H0C0.434188 34.2022 6.34132 39.9999 14.9594 39.9999Z" fill="#D5D5D5"/>
<path d="M171.675 37.7499C171.613 37.7499 171.558 37.7499 171.507 37.7535V38.1403C171.558 38.1476 171.609 38.1512 171.664 38.1512C171.865 38.1512 171.963 38.0819 171.963 37.9469C171.963 37.8703 171.941 37.8228 171.897 37.7936C171.85 37.7644 171.777 37.7499 171.675 37.7499ZM171.354 38.6876V37.6258C171.42 37.6222 171.478 37.6149 171.536 37.6149C171.595 37.6112 171.638 37.6076 171.675 37.6076C171.974 37.6076 172.124 37.7207 172.124 37.9469C172.124 38.0928 172.051 38.1913 171.912 38.2497L172.146 38.6876H171.974L171.77 38.2862C171.737 38.2899 171.704 38.2899 171.671 38.2899C171.609 38.2899 171.555 38.2862 171.507 38.2826V38.6876H171.354ZM171.697 39.0415C171.974 39.0415 172.186 38.9612 172.335 38.8116C172.489 38.6584 172.562 38.4358 172.562 38.1549C172.562 37.8739 172.489 37.6586 172.335 37.5054C172.186 37.3558 171.974 37.2755 171.697 37.2755C171.42 37.2755 171.208 37.3558 171.058 37.509C170.901 37.6623 170.828 37.8739 170.828 38.1549C170.828 38.4358 170.901 38.6547 171.058 38.808C171.208 38.9612 171.42 39.0415 171.697 39.0415ZM170.613 38.1549C170.613 37.9396 170.661 37.7499 170.748 37.5857C170.836 37.4251 170.967 37.3011 171.128 37.2172C171.292 37.1259 171.478 37.0822 171.697 37.0822C171.912 37.0822 172.105 37.1259 172.266 37.2172C172.427 37.3011 172.554 37.4251 172.645 37.5857C172.733 37.7499 172.777 37.9396 172.777 38.1549C172.777 38.3738 172.733 38.5671 172.645 38.7313C172.554 38.8919 172.427 39.0159 172.266 39.0999C172.105 39.1911 171.912 39.2312 171.697 39.2312C171.478 39.2312 171.292 39.1911 171.128 39.0999C170.967 39.0159 170.836 38.8919 170.748 38.7313C170.661 38.5671 170.613 38.3738 170.613 38.1549Z" fill="#D5D5D5"/>
<path d="M171.675 37.7499C171.613 37.7499 171.558 37.7499 171.507 37.7535V38.1403C171.558 38.1476 171.609 38.1512 171.664 38.1512C171.865 38.1512 171.963 38.0819 171.963 37.9469C171.963 37.8703 171.941 37.8228 171.897 37.7936C171.85 37.7644 171.777 37.7499 171.675 37.7499ZM171.354 38.6876V37.6258C171.42 37.6222 171.478 37.6149 171.536 37.6149C171.595 37.6112 171.638 37.6076 171.675 37.6076C171.974 37.6076 172.124 37.7207 172.124 37.9469C172.124 38.0928 172.051 38.1913 171.912 38.2497L172.146 38.6876H171.974L171.77 38.2862C171.737 38.2899 171.704 38.2899 171.671 38.2899C171.609 38.2899 171.555 38.2862 171.507 38.2826V38.6876H171.354ZM171.697 39.0415C171.974 39.0415 172.186 38.9612 172.335 38.8116C172.489 38.6584 172.562 38.4358 172.562 38.1549C172.562 37.8739 172.489 37.6586 172.335 37.5054C172.186 37.3558 171.974 37.2755 171.697 37.2755C171.42 37.2755 171.208 37.3558 171.058 37.509C170.901 37.6623 170.828 37.8739 170.828 38.1549C170.828 38.4358 170.901 38.6547 171.058 38.808C171.208 38.9612 171.42 39.0415 171.697 39.0415ZM170.613 38.1549C170.613 37.9396 170.661 37.7499 170.748 37.5857C170.836 37.4251 170.967 37.3011 171.128 37.2172C171.292 37.1259 171.478 37.0822 171.697 37.0822C171.912 37.0822 172.105 37.1259 172.266 37.2172C172.427 37.3011 172.554 37.4251 172.645 37.5857C172.733 37.7499 172.777 37.9396 172.777 38.1549C172.777 38.3738 172.733 38.5671 172.645 38.7313C172.554 38.8919 172.427 39.0159 172.266 39.0999C172.105 39.1911 171.912 39.2312 171.697 39.2312C171.478 39.2312 171.292 39.1911 171.128 39.0999C170.967 39.0159 170.836 38.8919 170.748 38.7313C170.661 38.5671 170.613 38.3738 170.613 38.1549Z" fill="#D5D5D5"/>
</g>
<defs>
<clipPath id="clip0_2715_176">
<rect width="172.777" height="40" fill="white"/>
</clipPath>
</defs>
</svg>
