<svg width="94" height="80" viewBox="0 0 94 80" fill="none" xmlns="http://www.w3.org/2000/svg">
<g clip-path="url(#clip0_2715_262)">
<path d="M19.9402 0L13.7627 15.9156L7.58792 0H0.00012207V25.4589H5.41326V7.09973L12.5824 25.4589H14.9452L22.1117 7.09973V25.4589H27.5655V0H19.9407H19.9402ZM85.897 30.8715L79.7201 46.7871L73.5447 30.872H65.9574V56.3306H71.3706V37.9712L78.54 56.3306H80.9025L88.0695 37.9712V56.3306H93.5234V30.8715H85.8975H85.897ZM7.81558 54.4634L5.39847 60.6857L2.98083 54.4634H0.0112145V64.4163H2.13041V57.2389L4.93576 64.4163H5.86092L8.66574 57.2389V64.4163H10.7997V54.4634H7.81558Z" fill="#F4F4F4"/>
<mask id="mask0_2715_262" style="mask-type:luminance" maskUnits="userSpaceOnUse" x="0" y="-1" width="94" height="82">
<path d="M0.000549316 -0.000617981H93.5803V80.0007H0.000549316V-0.000617981Z" fill="white"/>
</mask>
<g mask="url(#mask0_2715_262)">
<path d="M20.5141 59.4479C20.5141 57.5827 19.3355 56.1796 17.5 56.1796C15.6496 56.1796 14.4703 57.5827 14.4703 59.4479C14.4703 61.2983 15.6496 62.7162 17.4996 62.7162C19.3352 62.7162 20.5141 61.2983 20.5141 59.4479ZM12.2918 59.4479C12.2918 56.4486 14.4858 54.2998 17.5 54.2998C20.4992 54.2998 22.693 56.449 22.693 59.4479C22.693 62.4472 20.4992 64.596 17.5 64.596C14.4858 64.596 12.2918 62.4469 12.2918 59.4479ZM26.064 64.4171V56.3288H23.1542V54.4636H31.0926V56.3288H28.198V64.4171H26.064ZM35.1658 64.4171V56.3288H32.256V54.4636H40.1947V56.3288H37.3001V64.4171H35.1658ZM8.66657 79.8215V72.6437L5.86109 79.8215H4.93606L2.13058 72.6437V79.8215H0.0117798V69.8679H2.98166L5.39824 76.091L7.81614 69.8679H10.8006V79.8218L8.66657 79.8215ZM17.0817 71.9874L15.5301 76.2702H18.6333L17.0817 71.9874ZM19.8423 79.8215L19.215 78.1351H14.948L14.3211 79.8211H11.9184L15.7536 69.8689H18.4098L22.245 79.8211H19.8416L19.8423 79.8215ZM22.2737 74.8523C22.2737 71.7787 24.5866 69.7045 27.5862 69.7045C29.7644 69.7045 31.0328 70.8831 31.734 72.1369L29.9137 73.0323C29.4957 72.2267 28.6004 71.5846 27.5862 71.5846C25.7652 71.5846 24.4519 72.9725 24.4519 74.853C24.4519 76.7331 25.7652 78.1206 27.5859 78.1206C28.6001 78.1206 29.4954 77.4788 29.9133 76.673L31.7337 77.5534C31.0331 78.7924 29.7648 80.0007 27.5865 80.0007C24.5866 80.0007 22.2737 77.9116 22.2737 74.8526M40.2095 74.8374C40.2095 73.0917 39.135 71.7342 37.1056 71.7342L35.2853 71.7335V77.9572H37.0911C39.0603 77.9572 40.2095 76.5393 40.2095 74.8384M33.1658 79.8225V69.8689H37.0911C40.2095 69.8689 42.3732 71.854 42.3732 74.8384C42.3732 77.8532 40.2095 79.8228 37.1056 79.8228H33.1658V79.8225ZM51.7282 74.8523C51.7282 72.987 50.5497 71.5846 48.7141 71.5846C46.8637 71.5846 45.6845 72.9877 45.6845 74.8526C45.6845 76.703 46.8637 78.1206 48.7138 78.1206C50.5493 78.1206 51.7282 76.703 51.7282 74.8523ZM43.5059 74.8523C43.5059 71.8534 45.7 69.7045 48.7141 69.7045C51.7134 69.7045 53.9071 71.8537 53.9071 74.8526C53.9068 77.8516 51.7127 80.0007 48.7138 80.0007C45.6997 80.0007 43.5059 77.8516 43.5059 74.8526M62.2176 79.8215L57.4722 73.3304V79.8215H55.3534V69.8679H57.5323L62.143 76.1207V69.8679H64.2624V79.8218H62.2179L62.2176 79.8215ZM70.5584 71.9874L69.0068 76.2699H72.1101L70.5584 71.9874ZM73.319 79.8215L72.6917 78.1351H68.4241L67.7982 79.8211H65.3955L69.2306 69.8683H71.8869L75.7211 79.8211H73.3183L73.319 79.8215ZM76.8696 79.8215V69.8679H79.0032V77.9562H83.2115V79.8215H76.8696ZM91.4179 74.8374C91.4179 73.0917 90.3433 71.7342 88.314 71.7342L86.494 71.7335V77.9572H88.2998C90.2691 77.9572 91.4183 76.5393 91.4183 74.8384M84.3749 79.8225V69.8689H88.3001C91.4186 69.8689 93.5823 71.854 93.5823 74.8384C93.5823 77.8532 91.4186 79.8228 88.3147 79.8228H84.3745L84.3749 79.8225Z" fill="#F4F4F4"/>
</g>
</g>
<defs>
<clipPath id="clip0_2715_262">
<rect width="93.5798" height="80" fill="white"/>
</clipPath>
</defs>
</svg>
