<svg width="160" height="160" viewBox="0 0 160 160" fill="none" xmlns="http://www.w3.org/2000/svg">
<path d="M43.8282 71.632H54.2086C55.4847 71.632 56.4908 72.0001 57.0798 72.7608C57.6933 73.4479 57.9878 74.5031 57.9878 75.8528V76.6872C57.9878 77.9633 57.6197 78.9694 56.7853 79.7056C56.4172 80.0737 55.9509 80.3191 55.5092 80.3927C55.1411 80.4663 54.454 80.5399 53.3252 80.5399H48.0982V83.4847H43.9264V71.6074H43.8282V71.632ZM48 77.3743H52.8344C53.5951 77.3743 53.9632 77.0798 53.9632 76.4663V75.7792C53.9632 75.4111 53.8896 75.0921 53.7424 75.0185C53.5951 74.8712 53.2761 74.7976 52.8344 74.7976H48V77.3743ZM60.8589 83.4356H56.3927L62.9694 71.632H67.7301L74.2332 83.4356H69.7669L68.6381 81.3988H61.9878L60.8589 83.4356ZM65.1779 75.2639L63.1411 78.8958H67.1411L65.1779 75.2639ZM88.8098 76.3927C88.8098 77.3007 88.5154 77.9878 87.9755 78.3559C87.8282 78.5031 87.6074 78.5767 87.362 78.6504C88.27 79.1166 88.7362 79.8528 88.7362 80.9326V83.362H84.7362V80.9326C84.7362 80.4663 84.5154 80.2455 83.9755 80.2455H78.6012V83.3375H74.6749V71.6074H85.2025C86.1841 71.6074 87.0184 71.8283 87.5583 72.2209C88.3927 72.8344 88.8344 73.7424 88.8344 74.7976C88.8098 74.7976 88.8098 76.3927 88.8098 76.3927ZM78.6503 77.3743H83.8037C84.5644 77.3743 84.9325 77.1534 84.9325 76.6136V75.632C84.9325 75.3375 84.8589 75.0921 84.7117 74.9448C84.5644 74.8712 84.3436 74.7976 83.9509 74.7976H78.5767V77.3743H78.6503ZM99.4111 80.3927C99.8773 80.3927 100.172 80.3927 100.245 80.3191C100.393 80.2455 100.466 80.0982 100.466 79.8528V79.632C100.466 79.4111 100.393 79.1657 100.319 79.0921C100.245 79.0185 99.8528 78.9448 99.1902 78.9448H94.2577C93.0552 78.9448 92.1473 78.724 91.4602 78.3314C90.6994 77.7915 90.3313 76.9571 90.3313 75.8283V75.2148C90.3313 73.1044 91.3129 71.951 93.2761 71.6565C93.7424 71.5829 94.4786 71.5829 95.6319 71.5829H99.1166C100.172 71.5829 100.933 71.6565 101.399 71.7301C102.16 71.8774 102.675 72.1964 103.141 72.7117C103.607 73.2516 103.828 73.8406 103.828 74.5277V74.6013H95.1166C94.8221 74.6013 94.5767 74.6013 94.5031 74.6749C94.3559 74.8221 94.2086 74.9694 94.2086 75.1412V75.362C94.2086 75.6565 94.2822 75.8283 94.5031 75.9019C94.5767 75.9019 94.6503 75.9019 94.8712 75.9019H100.393C101.521 75.9019 102.429 76.0491 102.896 76.4418C103.73 76.9817 104.098 77.9633 104.098 79.3129V79.9264C104.098 80.4663 104.098 80.8344 104.025 81.0553C103.877 81.5951 103.656 81.9633 103.337 82.3313C102.871 82.8712 102.135 83.1657 101.153 83.3129C100.785 83.3866 100.245 83.3866 99.4111 83.3866H94.4049C93.0307 83.3866 92.0491 83.1657 91.4602 82.7731C91.1657 82.5522 90.9203 82.3068 90.6994 81.9387C90.4786 81.5706 90.4049 81.178 90.4049 80.8099V80.3436H99.4111V80.3927ZM115.902 71.632C117.031 71.632 117.718 71.632 118.012 71.7056C118.773 71.7792 119.387 72.0737 119.828 72.4663C120.442 73.0798 120.81 73.8405 120.957 74.8221C121.031 75.043 121.031 75.7301 121.031 76.7853V78.0614C121.031 78.2087 121.031 78.3559 121.031 78.6013C121.031 78.8467 121.031 79.0675 121.031 79.1412C121.031 80.8835 120.663 82.0123 119.902 82.5522C119.288 82.9203 118.699 83.2393 118.012 83.3129C117.546 83.3866 116.883 83.4602 116.049 83.4602H109.693C108.172 83.4602 106.969 83.0921 106.135 82.405C105.448 81.8651 105.153 80.8099 105.153 79.2148C105.153 79.2884 105.153 79.0675 105.153 78.6013C105.153 78.6013 105.153 78.454 105.153 78.135V76.7608C105.153 75.7792 105.227 75.0921 105.301 74.6504C105.595 72.9817 106.503 72.0001 108.098 71.7056C108.466 71.632 109.08 71.632 109.914 71.632H115.902ZM111.068 74.8712C110.38 74.8712 110.012 74.9448 109.791 75.0921C109.497 75.3129 109.325 75.7792 109.325 76.3682V78.6504C109.325 79.0185 109.325 79.2639 109.325 79.3375C109.399 79.951 109.939 80.2455 110.773 80.2455H115.387C116.368 80.2455 116.834 79.7792 116.834 78.9694V76.0982C116.834 75.3375 116.368 74.8958 115.387 74.8958C115.387 74.8712 111.068 74.8712 111.068 74.8712ZM126.798 83.4356H122.699V71.632H128.442L134.577 79.362V71.632H138.503V83.4356H132.834L126.773 75.8774V83.4356H126.798ZM148.982 80.3927C149.448 80.3927 149.742 80.3927 149.816 80.3191C149.963 80.2455 150.037 80.0982 150.037 79.8528V79.632C150.037 79.4111 149.963 79.1657 149.89 79.0921C149.816 79.0185 149.423 78.9448 148.761 78.9448H143.828C142.626 78.9448 141.718 78.724 141.031 78.3314C140.27 77.7915 139.902 76.9571 139.902 75.8283V75.2148C139.902 73.1044 140.883 71.951 142.847 71.6565C143.313 71.5829 144.049 71.5829 145.202 71.5829H148.687C149.742 71.5829 150.503 71.6565 150.969 71.7301C151.73 71.8774 152.245 72.1964 152.712 72.7117C153.178 73.2516 153.399 73.8406 153.399 74.5277V74.6013H144.687C144.393 74.6013 144.147 74.6013 144.074 74.6749C143.926 74.8221 143.779 74.9694 143.779 75.1412V75.362C143.779 75.6565 143.853 75.8283 144.074 75.9019C144.147 75.9019 144.221 75.9019 144.442 75.9019H149.963C151.092 75.9019 152 76.0491 152.466 76.4418C153.301 76.9817 153.669 77.9633 153.669 79.3129V79.9264C153.669 80.4663 153.669 80.8344 153.595 81.0553C153.448 81.5951 153.227 81.9633 152.908 82.3313C152.442 82.8712 151.706 83.1657 150.724 83.3129C150.356 83.3866 149.816 83.3866 148.982 83.3866H143.975C142.601 83.3866 141.62 83.1657 141.031 82.7731C140.736 82.5522 140.491 82.3068 140.27 81.9387C140.049 81.5706 139.975 81.178 139.975 80.8099V80.3436H148.982V80.3927Z" fill="#F2F2F2"/>
<path d="M6.45398 95.2392L14.6258 88.4171V83.4355H6.45398V95.2392Z" fill="#50BF34"/>
<path d="M30.0613 67.2393C28.6871 65.6442 26.6503 64.8098 23.9264 64.8098H6.45398L14.6258 71.6319H20.908C21.7423 71.6319 22.4294 71.7791 22.7239 72C23.092 72.2945 23.2638 72.8344 23.2638 73.6687V74.5767C23.2638 75.411 23.1166 75.9509 22.7239 76.2454C22.3558 76.5399 21.7423 76.6135 20.908 76.6135H14.6258L6.45398 83.4356H23.9509C26.6748 83.4356 28.7116 82.6012 30.0859 81.0061C31.4601 79.4847 32.0491 77.3742 32.0491 74.5767V73.6687C32.0245 70.8712 31.411 68.6626 30.0613 67.2393Z" fill="url(#paint0_linear_2715_285)"/>
<path d="M14.6258 85.1779V83.4355H6.45398L14.6258 85.1779Z" fill="#087538"/>
<defs>
<linearGradient id="paint0_linear_2715_285" x1="22.6931" y1="85.0998" x2="12.8192" y2="62.4045" gradientUnits="userSpaceOnUse">
<stop stop-color="#00AEE6"/>
<stop offset="0.223" stop-color="#00AEE6"/>
<stop offset="0.383" stop-color="#00A9E6"/>
<stop offset="0.545" stop-color="#009DE6"/>
<stop offset="0.707" stop-color="#0089E6"/>
<stop offset="0.868" stop-color="#016DE6"/>
<stop offset="0.999" stop-color="#0251E6"/>
</linearGradient>
</defs>
</svg>
