<svg width="210" height="140" viewBox="0 0 210 140" fill="none" xmlns="http://www.w3.org/2000/svg">
<path d="M40.9448 88.1147C47.2943 87.181 51.6829 82.0454 52.3365 76.4429C52.8034 77.2833 53.1769 78.8706 53.1769 80.2712C53.1769 85.2201 49.1618 88.4882 44.2129 88.4882C42.6256 88.4882 41.3183 88.2081 40.9448 88.1147ZM55.8848 61.9698C55.5113 61.6897 54.3908 60.9427 53.5504 60.3824C50.469 58.3282 48.1347 57.1143 48.1347 54.8733C48.1347 53.4727 49.2552 52.4455 50.7492 52.4455C53.457 52.4455 56.6318 54.8733 56.6318 54.8733C61.4873 58.4215 64.3819 64.024 64.3819 70C64.3819 72.3344 64.0084 74.1085 63.7283 74.9489C63.7283 72.241 62.1409 66.0783 55.8848 61.9698ZM30.4868 80.9249C28.2458 77.7501 27.032 74.0151 27.032 70C27.032 59.7288 34.8754 52.4455 43.5593 51.4184C43.3726 51.5118 41.2249 52.9124 41.2249 56.2739C41.2249 59.3553 43.3726 62.0632 45.1467 64.5843C45.6135 65.2379 45.987 65.8915 46.5473 66.6385C47.9479 68.7861 49.6287 71.5874 49.6287 74.8555C49.6287 80.7381 44.8666 85.3135 39.1707 85.3135C34.1284 85.4069 31.7007 82.6056 30.4868 80.9249ZM24.2307 70C24.2307 81.8586 33.8483 91.4762 45.7069 91.4762C57.5655 91.4762 67.1831 81.8586 67.1831 70C67.1831 58.1414 57.5655 48.5238 45.7069 48.5238C33.8483 48.5238 24.2307 58.1414 24.2307 70Z" fill="#EDEDED"/>
<mask id="mask0_2715_279" style="mask-type:luminance" maskUnits="userSpaceOnUse" x="24" y="48" width="162" height="44">
<path d="M24.2307 48.5238H185.769V91.3829H24.2307V48.5238Z" fill="white"/>
</mask>
<g mask="url(#mask0_2715_279)">
<path d="M139.735 79.2441C139.735 80.3646 139.082 81.2984 137.681 81.2984C136.28 81.2984 135.627 80.3646 135.627 79.2441V72.3344C135.627 70.4669 134.693 68.8795 132.545 68.8795C130.958 68.8795 129.838 69.8133 128.997 70.4669V79.2441C128.997 80.3646 128.344 81.2984 126.943 81.2984C125.542 81.2984 124.889 80.3646 124.889 79.2441V65.9849H128.437L128.717 67.759C129.371 67.1988 131.238 65.518 134.133 65.518C136.747 65.518 139.829 67.012 139.829 70.9337V79.2441H139.735ZM100.518 77.0031C100.518 77.8435 101.172 78.4037 101.919 78.4037C103.226 78.4037 103.599 77.3766 104.533 77.3766C105.373 77.3766 105.84 78.0302 105.84 78.6839C105.84 80.0845 104.16 81.2984 101.172 81.2984C97.81 81.2984 96.316 79.3375 96.316 76.8164V68.8795H93.6082V65.8915H96.316V62.53L100.518 61.4095V65.9849H106.027L105 68.9729H100.518V77.0031ZM148.232 77.0031C148.232 77.8435 148.886 78.4037 149.633 78.4037C150.94 78.4037 151.314 77.3766 152.341 77.3766C153.181 77.3766 153.648 78.0302 153.648 78.6839C153.648 80.0845 151.967 81.2984 148.979 81.2984C145.618 81.2984 144.124 79.3375 144.124 76.8164V68.8795H141.416V65.8915H144.124V62.53L148.326 61.4095V65.9849H153.835L152.808 68.9729H148.326L148.232 77.0031ZM77.2676 77.6567C77.2676 76.723 78.0146 76.0694 78.855 76.0694C80.2556 76.0694 81.2827 78.0302 84.8309 78.0302C86.9786 78.0302 88.5659 77.0965 88.5659 75.5091C88.5659 74.1085 87.4454 73.2681 85.6713 72.4277C85.1111 72.1476 84.0839 71.6807 83.4303 71.4006C81.0026 70.2801 78.5748 68.6928 78.5748 65.518C78.5748 62.4366 81.2827 59.8221 86.0448 59.8221C89.4997 59.8221 91.5539 60.7559 92.0208 61.036L90.9937 64.1174C90.4334 63.8373 88.3792 63.0903 86.2316 63.0903C84.6442 63.0903 83.0568 63.8373 83.0568 65.4246C83.0568 66.9186 84.3641 67.5723 86.0448 68.4126C86.6051 68.6928 87.0719 68.8795 87.6322 69.1596C90.2467 70.3735 93.0479 71.7741 93.0479 75.229C93.0479 78.964 89.4997 81.2984 84.8309 81.2984C80.5357 81.2984 77.2676 79.5242 77.2676 77.6567ZM180.073 81.2984C174.658 81.2984 171.483 77.7501 171.483 73.4549C171.483 68.9729 174.751 65.6114 180.073 65.6114C183.155 65.6114 184.835 66.7319 185.116 66.9186L184.182 69.6265C183.902 69.4398 182.501 68.506 180.447 68.506C177.365 68.506 175.778 70.747 175.778 73.4549C175.778 76.1627 177.459 78.4037 180.26 78.4037C182.408 78.4037 183.248 77.0031 184.369 77.0031C185.209 77.0031 185.769 77.6567 185.769 78.4037C185.769 79.8977 183.155 81.2984 180.073 81.2984ZM166.534 77.0965C165.413 77.0965 164.573 78.4971 162.519 78.4971C160.371 78.4971 158.784 76.8164 158.597 74.9489H169.242V74.0151C169.242 69.0663 166.534 65.6114 161.865 65.6114C157.103 65.6114 154.395 68.9729 154.395 73.4549C154.395 77.47 156.823 81.2984 162.425 81.2984C165.6 81.2984 168.028 79.8977 168.028 78.4971C168.028 77.7501 167.561 77.0965 166.534 77.0965ZM161.772 68.506C164.293 68.506 164.947 70.5602 164.947 72.241H158.504C158.504 70.3735 159.437 68.506 161.772 68.506ZM121.06 76.6296V71.6807C121.06 68.0391 118.819 65.6114 113.964 65.6114C110.602 65.6114 108.268 66.8253 107.801 67.1054L109.015 69.6265C109.295 69.5331 111.256 68.5994 113.124 68.5994C115.738 68.5994 116.952 70 116.952 71.4006V71.5874L114.337 71.6807C110.509 71.8675 107.241 73.0814 107.241 76.6296C107.241 79.5242 109.575 81.3917 112.75 81.3917C115.458 81.3917 116.859 79.9911 117.325 79.5242C117.419 79.8044 117.886 81.3917 119.847 81.3917C120.78 81.3917 121.34 81.0182 121.34 80.1779C121.34 79.1507 121.06 78.5905 121.06 76.6296ZM116.859 77.2832C116.578 77.47 115.458 78.4037 113.871 78.4037C112.377 78.4037 111.443 77.47 111.443 76.2561C111.443 74.8555 112.563 74.2019 114.898 74.1085L116.859 74.0151V77.2832Z" fill="#EDEDED"/>
</g>
</svg>
