<svg width="105" height="50" viewBox="0 0 105 50" fill="none" xmlns="http://www.w3.org/2000/svg">
<g clip-path="url(#clip0_2715_239)">
<mask id="mask0_2715_239" style="mask-type:luminance" maskUnits="userSpaceOnUse" x="-678" y="-998" width="831" height="1075">
<path d="M-677.186 76.1697H152.311V-997.298H-677.186V76.1697Z" fill="white"/>
</mask>
<g mask="url(#mask0_2715_239)">
<path d="M96.3817 13.7456C96.3817 8.18584 94.3486 3.5477 91.6893 0.508924H99.4164C101.95 3.59785 103.518 8.85269 103.518 13.7456V13.7633C103.518 18.6643 101.946 23.9273 99.4042 27.0149H91.6771C94.3418 23.9761 96.3817 19.3326 96.3817 13.7633V13.7456Z" fill="#EF3427"/>
</g>
<path d="M7.63087 0.508278H0.508301L10.2834 27.0183H14.069L15.7374 22.4927L7.63087 0.508278Z" fill="#EF3427"/>
<path d="M26.7387 0.508278H19.6161L29.3912 27.0183H33.1768L34.8453 22.4927L26.7387 0.508278Z" fill="#EF3427"/>
<path d="M81.1467 49.4917V24.5417V23.8966V21.9218V4.67173V3.30821V2.51938V0.509335H74.3318V21.9218V49.4917H81.1467Z" fill="#EF3427"/>
<mask id="mask1_2715_239" style="mask-type:luminance" maskUnits="userSpaceOnUse" x="-678" y="-998" width="831" height="1075">
<path d="M-677.186 76.1697H152.311V-997.298H-677.186V76.1697Z" fill="white"/>
</mask>
<g mask="url(#mask1_2715_239)">
<path d="M42.0756 4.4409C42.1867 3.08281 42.432 1.74504 42.9959 0.508924H49.2293C48.7088 1.44956 48.2195 3.16413 48.7752 4.86785C49.2781 6.40757 50.3434 7.458 51.6866 8.32273C53.2778 9.34741 55.1347 9.91803 56.8398 10.7136C58.6289 11.5458 60.3706 12.4174 61.8656 13.7158C64.0383 15.6025 65.3598 17.8403 65.5753 20.7327C65.601 21.0783 65.6119 21.4253 65.6119 21.7723C65.6119 23.5844 65.3272 25.3803 64.5181 27.0149H58.1179C58.7468 25.9441 59.2429 24.4844 59.1521 23.1371C58.9285 19.7975 54.8501 17.9717 51.4345 16.4524C50.914 16.2206 50.4031 15.9929 49.9138 15.7652C48.412 15.0631 46.9387 14.2566 45.6579 13.1926C44.335 12.0934 43.3293 10.9928 42.7126 9.37858C42.1704 7.9622 41.9726 6.42655 42.0444 4.91665C42.0525 4.75806 42.062 4.59948 42.0756 4.4409Z" fill="#EF3427"/>
</g>
</g>
<defs>
<clipPath id="clip0_2715_239">
<rect width="104.026" height="50" fill="white"/>
</clipPath>
</defs>
</svg>
