<svg width="40" height="40" viewBox="0 0 40 40" fill="none" xmlns="http://www.w3.org/2000/svg">
<path d="M37.688 33.4612H35.1978V15.6896C35.1978 15.0162 34.9309 14.3705 34.4559 13.8944C33.9809 13.4182 33.3366 13.1508 32.6648 13.1508H25.6992C25.5312 13.1508 25.3702 13.2176 25.2514 13.3367C25.1326 13.4557 25.0659 13.6171 25.0659 13.7855V33.4612H22.533V5.5994C22.5372 5.20395 22.4515 4.81273 22.2826 4.45535C22.1136 4.09797 21.8658 3.78379 21.5578 3.53662C21.1379 3.20854 20.6256 3.02138 20.0936 3.00172C19.5617 2.98207 19.037 3.13092 18.5942 3.42713L5.92939 11.8814C5.58197 12.1137 5.29725 12.4285 5.10059 12.7978C4.90393 13.1671 4.80143 13.5795 4.80223 13.9981V33.4612H2.31201C1.98473 33.4563 1.66776 33.5759 1.42486 33.7958C1.18196 34.0157 1.03116 34.3197 1.00278 34.6465C0.99128 34.8201 1.01552 34.9943 1.074 35.1581C1.13247 35.322 1.22393 35.472 1.3427 35.599C1.46147 35.7259 1.60501 35.827 1.76441 35.896C1.9238 35.965 2.09564 36.0004 2.26926 36H37.7307C37.9044 36.0004 38.0762 35.965 38.2356 35.896C38.395 35.827 38.5385 35.7259 38.6573 35.599C38.7761 35.472 38.8675 35.322 38.926 35.1581C38.9845 34.9943 39.0087 34.8201 38.9972 34.6465C38.9688 34.3197 38.818 34.0157 38.5751 33.7958C38.3322 33.5759 38.0153 33.4563 37.688 33.4612ZM11.7679 29.653C11.7683 29.827 11.7329 29.9992 11.6641 30.159C11.5953 30.3188 11.4944 30.4626 11.3678 30.5817C11.2411 30.7007 11.0914 30.7924 10.928 30.851C10.7645 30.9096 10.5907 30.9339 10.4175 30.9224C10.0911 30.8939 9.78765 30.7426 9.56821 30.4988C9.34877 30.255 9.22967 29.9369 9.23491 29.6086V27.157C9.23045 26.8291 9.34986 26.5116 9.56919 26.2682C9.78852 26.0248 10.0915 25.8736 10.4175 25.8448C10.5907 25.8332 10.7645 25.8575 10.928 25.9162C11.0914 25.9748 11.2411 26.0664 11.3678 26.1855C11.4944 26.3045 11.5953 26.4484 11.6641 26.6082C11.7329 26.7679 11.7683 26.9402 11.7679 27.1142V29.653ZM11.7679 20.7672C11.7683 20.9412 11.7329 21.1134 11.6641 21.2732C11.5953 21.4329 11.4944 21.5768 11.3678 21.6959C11.2411 21.8149 11.0914 21.9066 10.928 21.9652C10.7645 22.0238 10.5907 22.0481 10.4175 22.0366C10.0913 22.0078 9.78801 21.8563 9.56864 21.6126C9.34928 21.3688 9.23005 21.0509 9.23491 20.7227V18.2712C9.23045 17.9433 9.34986 17.6258 9.56919 17.3824C9.78852 17.139 10.0915 16.9878 10.4175 16.959C10.5907 16.9474 10.7645 16.9717 10.928 17.0303C11.0914 17.0889 11.2411 17.1806 11.3678 17.2997C11.4944 17.4187 11.5953 17.5626 11.6641 17.7223C11.7329 17.8821 11.7683 18.0543 11.7679 18.2284V20.7672ZM18.1003 29.653C18.1007 29.827 18.0653 29.9992 17.9965 30.159C17.9277 30.3188 17.8268 30.4626 17.7002 30.5817C17.5735 30.7007 17.4238 30.7924 17.2604 30.851C17.0969 30.9096 16.9231 30.9339 16.7499 30.9224C16.4241 30.894 16.1211 30.743 15.9017 30.4999C15.6823 30.2568 15.5629 29.9395 15.5673 29.6117V27.157C15.5633 26.8294 15.6828 26.5123 15.9021 26.2692C16.1214 26.0262 16.4242 25.8751 16.7499 25.8464C16.9231 25.8348 17.0969 25.8591 17.2604 25.9177C17.4238 25.9764 17.5735 26.068 17.7002 26.1871C17.8268 26.3061 17.9277 26.45 17.9965 26.6097C18.0653 26.7695 18.1007 26.9417 18.1003 27.1158V29.653ZM18.1003 20.7672C18.1007 20.9412 18.0653 21.1134 17.9965 21.2732C17.9277 21.4329 17.8268 21.5768 17.7002 21.6959C17.5735 21.8149 17.4238 21.9066 17.2604 21.9652C17.0969 22.0238 16.9231 22.0481 16.7499 22.0366C16.4242 22.0078 16.1214 21.8568 15.9021 21.6137C15.6828 21.3707 15.5633 21.0536 15.5673 20.7259V18.2712C15.5633 17.9435 15.6828 17.6264 15.9021 17.3834C16.1214 17.1404 16.4242 16.9893 16.7499 16.9605C16.9231 16.949 17.0969 16.9733 17.2604 17.0319C17.4238 17.0905 17.5735 17.1822 17.7002 17.3013C17.8268 17.4203 17.9277 17.5642 17.9965 17.7239C18.0653 17.8837 18.1007 18.0559 18.1003 18.23V20.7672Z" fill="#A387EE"/>
</svg>
