<svg width="40" height="40" viewBox="0 0 40 40" fill="none" xmlns="http://www.w3.org/2000/svg">
<g clip-path="url(#clip0_106_45317)">
<path d="M36.7687 15L15 36.7672C14.7678 36.9994 14.4922 37.1836 14.1888 37.3093C13.8855 37.4349 13.5603 37.4996 13.232 37.4996C12.9036 37.4996 12.5785 37.4349 12.2752 37.3093C11.9718 37.1836 11.6962 36.9994 11.464 36.7672L3.23121 28.5359C2.99901 28.3038 2.81481 28.0281 2.68914 27.7248C2.56346 27.4214 2.49878 27.0963 2.49878 26.768C2.49878 26.4396 2.56346 26.1145 2.68914 25.8111C2.81481 25.5078 2.99901 25.2321 3.23121 25L7.78903 20.4422C7.84707 20.3841 7.916 20.338 7.99188 20.3065C8.06775 20.2751 8.14908 20.2589 8.23121 20.2589C8.31335 20.2589 8.39468 20.2751 8.47055 20.3065C8.54643 20.338 8.61536 20.3841 8.6734 20.4422L14.1156 25.8844C14.2371 26.0058 14.3824 26.1009 14.5423 26.1637C14.7022 26.2265 14.8734 26.2557 15.0451 26.2494C15.2168 26.2431 15.3853 26.2014 15.5402 26.1271C15.6951 26.0527 15.833 25.9472 15.9453 25.8172C16.1506 25.5695 16.2549 25.2536 16.2375 24.9324C16.2202 24.6112 16.0823 24.3084 15.8515 24.0844L10.4406 18.6734C10.3237 18.5563 10.2581 18.3975 10.2581 18.232C10.2581 18.0665 10.3237 17.9078 10.4406 17.7906L12.7843 15.4469C12.8424 15.3888 12.9113 15.3427 12.9872 15.3112C13.0631 15.2797 13.1444 15.2636 13.2265 15.2636C13.3087 15.2636 13.39 15.2797 13.4659 15.3112C13.5417 15.3427 13.6107 15.3888 13.6687 15.4469L19.1109 20.889C19.2324 21.0105 19.3777 21.1056 19.5376 21.1684C19.6975 21.2312 19.8687 21.2604 20.0404 21.2541C20.2121 21.2477 20.3806 21.2061 20.5355 21.1318C20.6904 21.0574 20.8283 20.9519 20.9406 20.8219C21.1459 20.5742 21.2502 20.2583 21.2329 19.9371C21.2155 19.6159 21.0776 19.3131 20.8468 19.089L15.4422 13.6734C15.3253 13.5563 15.2596 13.3975 15.2596 13.232C15.2596 13.0665 15.3253 12.9078 15.4422 12.7906L17.7859 10.4469C17.9031 10.33 18.0618 10.2643 18.2273 10.2643C18.3928 10.2643 18.5515 10.33 18.6687 10.4469L24.1109 15.889C24.2324 16.0108 24.3778 16.1061 24.5379 16.169C24.698 16.232 24.8693 16.2612 25.0412 16.2549C25.2131 16.2486 25.3818 16.2069 25.5368 16.1324C25.6919 16.0578 25.8298 15.9521 25.9422 15.8219C26.1472 15.574 26.2513 15.258 26.2337 14.9368C26.216 14.6156 26.0779 14.3129 25.8468 14.089L20.4422 8.67343C20.3253 8.55626 20.2596 8.39752 20.2596 8.23202C20.2596 8.06652 20.3253 7.90778 20.4422 7.79061L25 3.2328C25.2321 3.00059 25.5077 2.81639 25.8111 2.69072C26.1144 2.56505 26.4396 2.50037 26.7679 2.50037C27.0963 2.50037 27.4214 2.56505 27.7248 2.69072C28.0281 2.81639 28.3037 3.00059 28.5359 3.2328L36.7687 11.4641C37.0009 11.6962 37.1851 11.9718 37.3108 12.2752C37.4365 12.5785 37.5011 12.9037 37.5011 13.232C37.5011 13.5604 37.4365 13.8855 37.3108 14.1889C37.1851 14.4922 37.0009 14.7678 36.7687 15Z" fill="#A387EE"/>
</g>
<defs>
<clipPath id="clip0_106_45317">
<rect width="40" height="40" fill="white"/>
</clipPath>
</defs>
</svg>
