<svg width="172" height="40" viewBox="0 0 172 40" fill="none" xmlns="http://www.w3.org/2000/svg">
<path d="M27.9246 38.4272H36.6906L28.177 1.57172H18.1918L0.853027 38.4272H10.1252L13.131 31.2453H26.4006L27.9246 38.4272ZM16.5303 23.1218L21.8788 10.3401H21.963L24.6765 23.1218H16.5303Z" fill="#EBEBEB"/>
<path d="M63.8805 29.851H37.9758L36.6907 38.4272H62.5931L63.8805 29.851ZM66.834 10.1456H40.9304L42.2166 1.57172H68.1202L66.834 10.1456ZM61.6048 24.2863H38.8094L40.0968 15.7125H62.8922L61.6048 24.2863Z" fill="#EBEBEB"/>
<path d="M92.426 28.9776C89.9547 30.1183 86.2654 30.3048 84.4571 30.3048C78.6252 30.3048 74.7642 26.3266 74.9598 20.4139C75.1681 14.1703 79.8876 9.69404 86.2972 9.69404C89.3281 9.69404 91.995 10.6948 94.3878 12.7169L96.1619 3.89285C92.501 1.73657 89.4293 0.852966 85.5933 0.852966C74.9814 0.852966 66.2245 9.69406 65.8548 20.8018C65.4977 31.5751 72.501 39.147 82.9036 39.147C84.7119 39.147 88.6253 38.9581 91.0931 37.8187L92.426 28.9776Z" fill="#EBEBEB"/>
<path d="M114.455 0.941637C124.311 1.64219 130.41 9.66566 129.31 20.3912C128.171 31.4455 119.252 39.6748 109.193 38.9571C99.3337 38.2566 93.2368 30.2331 94.3388 19.5076C95.4738 8.45446 104.393 0.22403 114.455 0.941637ZM120.54 21.2874C121.88 15.0563 119.56 10.2024 114.851 9.24255C109.675 8.18035 104.968 12.1449 103.548 18.7297C102.205 24.9619 104.525 29.8146 109.235 30.7791C114.415 31.8345 119.121 27.8722 120.54 21.2874Z" fill="#EBEBEB"/>
<path d="M170.238 38.4271L169.562 1.5694H161.252L150.614 22.3598L146.32 1.5694H138.019L126.568 38.4271H135.729L141.96 16.8486L145.875 38.4271H150.544L161.344 16.8577L161.216 38.4271H170.238Z" fill="#EBEBEB"/>
</svg>
