<svg width="256" height="40" viewBox="0 0 256 40" fill="none" xmlns="http://www.w3.org/2000/svg">
<g clip-path="url(#clip0_3669_290)">
<path d="M23.8208 0.635202C-10.2272 2.1584 2.79518 39.4928 2.79518 39.4928C5.78078 36.2544 15.3088 28.5712 28.712 28.5072H28.776C35.256 28.5072 39.0672 33.968 37.6064 39.4288C37.6064 39.4288 47.6432 27.6192 42.0528 14.2224C40.2112 9.7776 35.192 6.4128 29.2848 6.4128C27.1735 6.4253 25.0833 6.83454 23.1232 7.6192C18.232 9.5872 17.5328 14.032 18.5488 16.1264C19.3104 17.6512 20.7728 18.3504 22.296 18.3504C22.552 18.3504 22.8048 18.3504 23.1232 18.2864C28.0768 17.5232 30.0464 15.2384 31.1904 15.2384C31.3808 15.2384 31.5072 15.3024 31.6352 15.3664C32.3328 15.936 31.6992 18.2224 25.3472 20.7616C23.8208 21.3968 21.0272 22.096 18.232 22.096C14.992 22.096 11.816 21.1424 10.7984 17.84C8.83038 11.8096 15.944 4.5712 26.616 3.7456C27.1248 3.6816 27.8864 3.6816 28.3952 3.6816C33.7952 3.6816 37.7328 6.096 39.6384 7.7456C37.4144 4.064 32.7776 0.635202 25.2816 0.507202C25.2816 0.699202 24.6464 0.635202 23.8208 0.635202Z" fill="#E76A25"/>
<path d="M93.7599 8.88961V21.4608H104.306C108.88 21.4608 110.914 18.5392 110.914 15.3008C110.914 12.1904 108.88 8.952 104.306 8.952H93.7616V8.888L93.7599 8.88961ZM118.09 38.4128H111.61L101.066 26.4768H93.7599V38.4128H88.2335V3.80801H104.37C112.373 3.80801 116.566 9.2688 116.566 15.1088C116.566 20.0624 114.026 24.888 107.165 25.9024L118.09 38.4128ZM187.712 33.08H195.334C203.782 33.08 207.341 26.856 207.214 20.7616C207.086 14.9216 203.53 9.08001 195.334 9.08001H187.712V33.08ZM195.334 3.80961C207.15 3.80961 212.55 12.2544 212.678 20.8256C212.867 29.5872 207.405 38.4128 195.334 38.4128H182.25V3.80801L195.334 3.80961ZM216.933 3.80961H222.395V38.4128H216.933V3.80961ZM249.902 11.4928C248.25 9.14241 244.947 7.68321 241.326 7.6192C236.69 7.6192 233.322 9.5232 233.322 12.8896C233.322 16.2544 237.197 17.2064 241.707 17.8416C248.822 18.8576 255.619 20.8256 255.619 28.5712C255.555 36.3168 248.504 39.2384 241.262 39.2384C234.656 39.2384 229.51 37.2064 226.398 31.3664L230.526 28.5712C233.005 32.7632 237.325 34.2864 241.326 34.2864C245.454 34.2864 250.093 32.8896 250.093 28.5712C250.093 24.8256 246.09 23.5552 241.262 22.8576C234.402 21.904 227.859 20.1904 227.859 12.7616C227.795 5.5872 234.974 2.8576 241.198 2.8576C246.218 2.8576 251.173 4.064 254.094 8.6976L249.902 11.4928ZM86.328 38.4128L70.7647 3.80961H64.7311L49.2303 38.4128H55.0751L67.7791 9.65121L75.0208 26.096H63.5231L61.3007 31.1744H77.2447L80.4207 38.4128H86.328ZM164.781 3.80961H158.746L148.645 26.2864C147.565 28.4448 146.357 29.7776 145.978 30.2224C143.563 32.6352 140.006 33.968 136.83 33.968C127.874 33.968 124.126 27.6832 124.062 21.3328C123.998 14.984 128 8.50721 136.83 8.50721C140.069 8.50721 143.31 9.6512 145.787 12.064L149.47 8.50721C145.978 5.01601 141.467 3.2384 136.83 3.2384C124.443 3.2384 118.534 12.2544 118.598 21.3968C118.662 30.4768 124.315 39.1744 136.83 39.1744C141.658 39.1744 146.294 37.5232 149.853 34.032C149.853 34.032 152.077 31.8096 153.474 28.5712L153.918 27.5552L154.934 25.2704L161.795 9.7136L169.037 26.1584H157.6L155.376 31.1744H171.258L174.434 38.4128H180.342L164.781 3.80961Z" fill="#F6F6F6"/>
</g>
<defs>
<clipPath id="clip0_3669_290">
<rect width="256" height="40" fill="white"/>
</clipPath>
</defs>
</svg>
