<svg width="130" height="40" viewBox="0 0 130 40" fill="none" xmlns="http://www.w3.org/2000/svg">
<path d="M11.9396 25.0236L8.59043 34.9856C8.48914 35.7108 8.65447 36.2921 9.08111 36.7134C9.73178 37.3694 10.713 37.7107 12.0249 37.7373V37.9933H1.16699V37.7373C3.45485 37.5827 4.84684 36.7881 5.34802 35.3482L16.8459 1.13208L31.0101 35.5402C31.5168 36.8521 32.7807 37.5827 34.7858 37.7373L34.8285 37.9933H23.6294V37.7373C24.808 37.7373 25.6613 37.412 26.1892 36.7561C26.4825 36.5054 26.5625 36.0628 26.4238 35.4335C25.5705 33.2737 24.1467 29.8019 22.1574 25.0236H11.9396ZM12.6648 22.8478H21.2188L16.6112 11.3073L12.6648 22.8478ZM105.501 4.22519V4.0332C113.079 4.00654 117.916 4.12386 120.006 4.3745C121.707 4.57716 123.297 5.22243 124.763 6.3157C126.24 7.41427 127.28 8.7635 127.878 10.3687C128.256 11.4246 128.453 12.5392 128.453 13.7178C128.453 16.139 127.718 18.1868 126.256 19.8613C124.347 21.9519 122.113 22.9971 119.558 22.9971C118.62 22.9971 117.686 22.8371 116.764 22.5065C116.038 22.2558 115.676 22.0105 115.676 21.7812C117.452 21.8399 118.684 21.7919 119.366 21.6319C120.545 21.3386 121.638 20.6879 122.651 19.6907C123.67 18.6828 124.299 17.5735 124.528 16.3629C124.651 15.8137 124.72 15.2537 124.72 14.6991C124.72 11.6166 123.361 9.19013 120.646 7.42494C119.409 6.60366 117.932 6.18771 116.23 6.18771C115.276 6.18771 114.369 6.34236 113.521 6.63567V34.7082C113.521 36.4041 114.663 37.412 116.956 37.7373V37.9933H105.607V37.7373C107.239 37.5134 108.359 36.8787 108.956 35.8388C109.154 35.4442 109.255 34.1483 109.255 31.9564V6.93431C109.255 5.58508 108.396 4.73181 106.695 4.3745C106.423 4.34784 106.023 4.29984 105.501 4.22519ZM49.974 4.0332C51.8352 4.0332 53.6005 4.60382 55.2643 5.73974C56.9389 6.86498 58.1441 8.3102 58.8694 10.0701C59.3227 11.222 59.5521 12.4539 59.5521 13.7605C59.5521 16.2509 58.7948 18.2988 57.2908 19.904C56.5763 20.6879 55.643 21.4292 54.4963 22.1225C56.9548 25.1943 60.3947 29.3433 64.8209 34.5589C66.3248 36.3508 68.3514 37.22 70.9005 37.1614C70.9431 37.1934 70.9644 37.2574 70.9644 37.3534C69.9832 37.908 68.8259 38.1853 67.5088 38.1853C65.8448 38.1853 64.3836 37.78 63.1358 36.9694C61.1999 35.6948 59.184 33.7216 57.0989 31.0605C53.7284 26.6715 52.0059 24.4423 51.9365 24.3837C50.854 23.1784 49.5954 22.4372 48.1608 22.1652V21.9732C50.8434 22.2025 52.9445 21.4132 54.4537 19.6054C55.4883 18.3735 56.0109 16.7682 56.0109 14.8057C56.0109 13.8138 55.867 12.8752 55.5843 11.9899C55.1151 10.5874 54.235 9.34481 52.9604 8.27821C51.6913 7.21696 50.3314 6.58766 48.8862 6.40102C47.3182 6.16103 46.0436 6.25704 45.0678 6.67833V34.9002C45.1478 35.5828 45.5264 36.1908 46.1983 36.7134C46.7477 37.1721 47.3823 37.4707 48.0968 37.6094L49.0781 37.7373V37.9933H37.239V37.7373C39.0415 37.5134 40.2095 36.8414 40.7374 35.7322L40.8868 34.7936V7.08364C40.8868 5.90505 40.2095 5.06778 38.8602 4.5665C38.3323 4.41182 37.6284 4.29984 36.7483 4.22519V4.0332H49.974ZM100.21 4.22519C97.8479 4.55582 96.5786 5.3611 96.4133 6.63567V27.8608C96.2533 29.8979 95.5441 31.8125 94.2801 33.599C93.0109 35.3802 91.4323 36.7454 89.5444 37.6947C87.9659 38.4733 86.1794 38.8679 84.1901 38.8679C81.6571 38.8679 79.4705 38.26 77.6414 37.0547C73.8123 34.5962 71.903 31.1405 71.903 26.6875V6.89165C71.903 5.89973 71.3112 5.12112 70.1326 4.5665C69.9886 4.53982 69.3272 4.42782 68.1487 4.22519V3.99054H79.7958V4.18252C77.604 4.3425 76.3561 5.14778 76.0628 6.593V27.7114C76.0628 31.0552 77.4707 33.583 80.2865 35.2842C81.5611 36.0841 83.0596 36.4788 84.7661 36.4788C86.926 36.4788 88.8724 35.7055 90.6111 34.1536C92.3442 32.5911 93.2348 30.7299 93.2775 28.5647L93.3201 24.6183V7.12631C93.3201 6.02238 92.6749 5.20111 91.4003 4.67315C91.1443 4.57716 90.4883 4.42782 89.4378 4.22519V3.99054H100.21V4.22519Z" fill="#E4E4E4"/>
</svg>
