<svg width="120" height="90" viewBox="0 0 120 90" fill="none" xmlns="http://www.w3.org/2000/svg">
<g clip-path="url(#clip0_3669_309)">
<path d="M63.9416 39.8047L58.9916 41.553V31.8262L53.4982 33.7657V58.7531L58.9894 56.8102V46.7977L63.9394 45.0495V55.062L69.4316 53.1225V28.1385L63.9394 30.078L63.9416 39.8047Z" fill="#F4F4F4"/>
<path d="M72.1328 32.3775L76.9523 30.6754V50.4101L82.4445 48.4706V28.7359L87.2629 27.0338V21.7856L72.1328 27.1226V32.3775Z" fill="#F4F4F4"/>
<path d="M111.975 32.4788V12.7395L106.482 14.679V39.6675L119.402 35.1056V29.8564L111.975 32.4788Z" fill="#F4F4F4"/>
<path d="M13.0646 60.822C14.2807 59.1823 14.9427 57.1978 14.9546 55.1565C14.9602 54.0742 14.6689 50.7555 11.754 49.9815C10.4607 49.729 9.12279 49.8396 7.8885 50.301L0 53.0876V78.0739L10.4265 74.3929C11.935 73.9286 13.2682 73.0197 14.2515 71.7851C15.4354 70.0968 16.0799 68.0893 16.0999 66.0274C16.1145 63.7526 15.1515 61.3586 13.0624 60.822M5.49787 56.3974C5.49787 56.3974 7.71075 55.566 8.23162 55.4029C9.64125 54.9236 10.1565 56.2916 10.1588 57.2456C10.1748 57.8819 9.99163 58.5073 9.63481 59.0344C9.27798 59.5614 8.76536 59.9638 8.16862 60.1852C7.812 60.318 5.49675 61.1291 5.49675 61.1291L5.49787 56.3974ZM9.19013 69.5835L5.49787 70.8862V65.5785L8.67825 64.4535C9.96862 63.9664 10.98 64.9125 10.98 66.4549C11.0627 67.0996 10.9326 67.7538 10.6096 68.3179C10.2865 68.882 9.78811 69.3252 9.19013 69.5801" fill="#F4F4F4"/>
<path d="M90.2351 45.81L103.455 41.1413V35.8931L95.7274 38.6213V33.3135L101.665 31.2165V26.514L95.7285 28.611V24.1313L103.456 21.4031V16.1528L90.2362 20.8215L90.2351 45.81Z" fill="#F4F4F4"/>
<path d="M19.3028 70.9077L32.5226 66.2389V60.9908L24.795 63.7189V58.4123L30.7283 56.3108V51.6117L24.7916 53.7087V49.2289L32.5193 46.5008V41.2515L19.2994 45.9203L19.3028 70.9077Z" fill="#F4F4F4"/>
<path d="M50.2751 50.544L45.3791 52.2731V54.8854C45.4026 55.6018 45.1894 56.3061 44.7725 56.8893C44.3557 57.4725 43.7584 57.9021 43.0729 58.1119C41.6902 58.608 40.8982 58.1333 40.8982 56.7675V44.955C40.8979 44.2467 41.1265 43.5573 41.5501 42.9896C41.9736 42.4219 42.5693 42.0064 43.2484 41.805C44.6704 41.3055 45.3769 41.7926 45.3802 43.2563V45.9157L50.2762 44.1889V41.6014C50.265 37.9699 48.3637 35.9932 45.1856 36.3139C44.4211 36.4191 43.6679 36.5946 42.9356 36.8381C40.7547 37.5247 38.8493 38.8884 37.4959 40.7313C36.1426 42.5742 35.4117 44.8004 35.4094 47.0869V58.0894C35.4206 61.8019 37.6324 63.9776 40.9871 63.6367C41.7343 63.5539 42.4689 63.382 43.1752 63.1249C45.2364 62.4806 47.0376 61.1943 48.3157 59.4536C49.5938 57.713 50.282 55.6094 50.2796 53.4499L50.2751 50.544Z" fill="#F4F4F4"/>
<path d="M56.4941 6.84112C66.139 6.82788 75.4135 10.5534 82.3691 17.235L89.4566 14.7319C83.6104 8.20117 75.956 3.55423 67.4645 1.38062C58.9731 -0.792986 50.0274 -0.395296 41.7623 2.52323C33.4973 5.44176 26.2854 10.7496 21.0417 17.7733C15.798 24.797 12.7588 33.2201 12.3098 41.9737L19.3973 39.4706C20.5597 30.4529 24.9667 22.1672 31.7944 16.1628C38.6221 10.1583 47.4029 6.8462 56.4953 6.84562" fill="#FF2800"/>
<path d="M58.5101 83.1589C48.7746 83.1711 39.4207 79.374 32.4483 72.5794L25.3788 75.0757C31.2163 81.673 38.8902 86.3775 47.4178 88.5866C55.9453 90.7958 64.9382 90.409 73.2446 87.4759C81.5509 84.5427 88.7926 79.1968 94.0421 72.1227C99.2916 65.0486 102.31 56.5686 102.71 47.7686L95.6452 50.2627C94.5432 59.3361 90.1573 67.6919 83.3156 73.7526C76.474 79.8133 67.6501 83.1593 58.5101 83.1589Z" fill="#FF2800"/>
</g>
<defs>
<clipPath id="clip0_3669_309">
<rect width="119.402" height="90" fill="white"/>
</clipPath>
</defs>
</svg>
