<svg width="100" height="100" viewBox="0 0 100 100" fill="none" xmlns="http://www.w3.org/2000/svg">
<path d="M64.4171 48.5889C64.3864 62.6227 54.003 72.8681 39.6932 72.8681H33.8496V63.7577H39.6932C48.7729 63.7577 55.1226 57.4846 55.138 48.5736C55.1226 39.6472 48.7729 33.4356 39.6932 33.4356H33.8496V24.3251H39.6932C54.003 24.3251 64.3864 34.5092 64.4171 48.5429V48.5889ZM64.4018 33.0521H75.5674C78.9417 33.0521 81.2116 33.7423 82.8527 35.3374C84.3558 36.7791 85.1226 38.6963 85.1226 40.8435C85.1226 45.7515 80.8128 48.6656 76.0122 48.6656H73.2208L69.9539 55.5981L88.2055 74.1871L95.3067 68.3282L82.3772 55.5215C89.5245 54.2178 94.4018 47.7914 94.4018 41.0429C94.4018 35.9816 92.9447 32.0859 89.2637 28.6963C85.4601 25.184 81.2269 24.3251 74.8619 24.3251H64.4018V33.0521ZM34.1104 43.727H13.3128V24.3251H3.29749V72.8681H13.3128V53.4356H34.1104V43.727Z" fill="#E2E2E2"/>
</svg>
