<svg width="173" height="40" viewBox="0 0 173 40" fill="none" xmlns="http://www.w3.org/2000/svg">
<g clip-path="url(#clip0_3669_199)">
<path d="M159.351 39.9997C166.505 39.9997 171.49 36.3146 171.49 30.9474C171.49 26.3429 168.779 23.6283 163.087 22.4388L159.511 21.6799C157.723 21.3041 156.749 20.4868 156.749 19.4579C156.749 18.0532 158.103 17.1848 160.328 17.1848C162.817 17.1848 165.203 17.8853 168.023 19.5126L170.461 13.9302C167.914 12.0876 164.444 11.0587 160.598 11.0587C153.604 11.0587 149.05 14.6344 149.05 20.2204C149.05 24.6645 151.707 27.266 157.347 28.4007L160.649 29.1049C162.871 29.5938 163.63 30.2469 163.63 31.5422C163.63 32.9542 162.061 33.7678 159.241 33.7678C156.91 33.7678 153.494 32.52 150.623 30.6263L148.24 36.2635C150.678 38.5402 154.906 39.945 159.351 39.9997ZM131.978 33.2242C128.02 33.2242 125.477 30.3527 125.477 25.5292C125.477 20.7057 128.02 17.8306 131.978 17.8306C135.937 17.8306 138.48 20.7057 138.48 25.5292C138.48 30.3527 135.937 33.2242 131.978 33.2242ZM133.766 39.9997C140.323 39.9997 146.175 34.6909 146.175 25.5292C146.175 16.6411 140.867 11.0587 134.036 11.0587C130.351 11.0587 127.534 12.6313 125.801 15.2328V-0.000301361H118.322V31.5969C118.322 34.202 118.212 36.4788 117.997 39.2408H125.039C125.148 38.1571 125.258 37.0224 125.312 35.7746C127.319 38.5913 130.406 39.9997 133.766 39.9997ZM100.487 33.2242C96.532 33.2242 93.9852 30.3527 93.9852 25.5292C93.9852 20.7057 96.532 17.8306 100.487 17.8306C104.446 17.8306 106.996 20.7057 106.996 25.5292C106.996 30.3527 104.446 33.2242 100.487 33.2242ZM100.217 39.9997C108.675 39.9997 114.691 34.4173 114.691 25.5292C114.691 16.6411 108.945 11.0587 100.487 11.0587C92.1974 11.0587 86.2866 17.13 86.2866 25.5292C86.2866 34.1436 91.9237 39.9997 100.217 39.9997ZM75.6107 39.9997C79.3469 39.9997 83.1998 38.7008 85.5277 36.5846L82.8204 30.8963C80.7589 32.1953 78.1063 33.0636 76.0449 33.0636C71.8124 33.0636 69.1088 30.1922 69.1088 25.5292C69.1088 21.0304 71.7614 17.9948 76.4207 17.9948C78.3763 17.9948 80.6495 18.8631 82.5467 20.111L85.5277 14.2002C83.1451 12.1424 79.8942 11.0587 76.2601 11.0587C66.8831 11.0587 61.4102 17.7211 61.4102 25.5292C61.4102 34.4173 66.8284 39.9997 75.6107 39.9997ZM50.5154 29.3238C50.5154 32.9542 47.425 34.1436 44.933 34.1436C42.3862 34.1436 40.9742 33.1731 40.9742 31.1116C40.9742 29.3238 42.1162 28.0249 45.2066 27.8607L50.5154 27.587V29.3238ZM51.7595 39.2408H58.8087C58.2651 36.9677 57.8856 33.2242 57.8856 30.6263V21.8988C57.8856 15.178 53.7116 11.0587 46.345 11.0587C38.3727 11.0587 34.9065 16.0975 34.3665 20.111H41.4084C41.8462 18.3195 43.4151 17.1848 46.1224 17.1848C48.7823 17.1848 50.5154 18.5384 50.5154 21.2494V22.3877L43.6851 22.7125C36.4754 23.0919 33.5492 26.7223 33.5492 31.5969C33.5492 36.8582 37.2891 39.9997 42.9809 39.9997C47.2097 39.9997 49.9206 37.9455 51.2743 36.2635C51.3837 37.3982 51.599 38.4819 51.7595 39.2408ZM22.3333 15.0175H30.2435V-0.000301361H14.7989V7.4794H22.3333V15.0175ZM14.9594 39.9997C24.0664 39.9997 30.2435 33.6073 30.2435 24.7156V20.0015H22.3333V24.7156C22.3333 29.3785 19.4582 32.4142 14.9594 32.4142C10.7306 32.4142 8.29335 29.7543 7.85916 26.0181H0C0.434188 34.202 6.34132 39.9997 14.9594 39.9997Z" fill="#D5D5D5"/>
<path d="M171.675 37.7497C171.613 37.7497 171.558 37.7497 171.507 37.7534V38.1401C171.558 38.1474 171.609 38.1511 171.664 38.1511C171.865 38.1511 171.963 38.0818 171.963 37.9468C171.963 37.8701 171.941 37.8227 171.897 37.7935C171.85 37.7643 171.777 37.7497 171.675 37.7497ZM171.354 38.6874V37.6257C171.42 37.622 171.478 37.6147 171.536 37.6147C171.595 37.6111 171.638 37.6074 171.675 37.6074C171.974 37.6074 172.124 37.7205 172.124 37.9468C172.124 38.0927 172.051 38.1912 171.912 38.2496L172.146 38.6874H171.974L171.77 38.2861C171.737 38.2897 171.704 38.2897 171.671 38.2897C171.609 38.2897 171.555 38.2861 171.507 38.2824V38.6874H171.354ZM171.697 39.0414C171.974 39.0414 172.186 38.9611 172.335 38.8115C172.489 38.6582 172.562 38.4357 172.562 38.1547C172.562 37.8738 172.489 37.6585 172.335 37.5053C172.186 37.3557 171.974 37.2754 171.697 37.2754C171.42 37.2754 171.208 37.3557 171.058 37.5089C170.901 37.6622 170.828 37.8738 170.828 38.1547C170.828 38.4357 170.901 38.6546 171.058 38.8078C171.208 38.9611 171.42 39.0414 171.697 39.0414ZM170.613 38.1547C170.613 37.9395 170.661 37.7497 170.748 37.5855C170.836 37.425 170.967 37.301 171.128 37.217C171.292 37.1258 171.478 37.082 171.697 37.082C171.912 37.082 172.105 37.1258 172.266 37.217C172.427 37.301 172.554 37.425 172.645 37.5855C172.733 37.7497 172.777 37.9395 172.777 38.1547C172.777 38.3736 172.733 38.567 172.645 38.7312C172.554 38.8918 172.427 39.0158 172.266 39.0997C172.105 39.1909 171.912 39.2311 171.697 39.2311C171.478 39.2311 171.292 39.1909 171.128 39.0997C170.967 39.0158 170.836 38.8918 170.748 38.7312C170.661 38.567 170.613 38.3736 170.613 38.1547Z" fill="#D5D5D5"/>
<path d="M171.675 37.7497C171.613 37.7497 171.558 37.7497 171.507 37.7534V38.1401C171.558 38.1474 171.609 38.1511 171.664 38.1511C171.865 38.1511 171.963 38.0818 171.963 37.9468C171.963 37.8701 171.941 37.8227 171.897 37.7935C171.85 37.7643 171.777 37.7497 171.675 37.7497ZM171.354 38.6874V37.6257C171.42 37.622 171.478 37.6147 171.536 37.6147C171.595 37.6111 171.638 37.6074 171.675 37.6074C171.974 37.6074 172.124 37.7205 172.124 37.9468C172.124 38.0927 172.051 38.1912 171.912 38.2496L172.146 38.6874H171.974L171.77 38.2861C171.737 38.2897 171.704 38.2897 171.671 38.2897C171.609 38.2897 171.555 38.2861 171.507 38.2824V38.6874H171.354ZM171.697 39.0414C171.974 39.0414 172.186 38.9611 172.335 38.8115C172.489 38.6582 172.562 38.4357 172.562 38.1547C172.562 37.8738 172.489 37.6585 172.335 37.5053C172.186 37.3557 171.974 37.2754 171.697 37.2754C171.42 37.2754 171.208 37.3557 171.058 37.5089C170.901 37.6622 170.828 37.8738 170.828 38.1547C170.828 38.4357 170.901 38.6546 171.058 38.8078C171.208 38.9611 171.42 39.0414 171.697 39.0414ZM170.613 38.1547C170.613 37.9395 170.661 37.7497 170.748 37.5855C170.836 37.425 170.967 37.301 171.128 37.217C171.292 37.1258 171.478 37.082 171.697 37.082C171.912 37.082 172.105 37.1258 172.266 37.217C172.427 37.301 172.554 37.425 172.645 37.5855C172.733 37.7497 172.777 37.9395 172.777 38.1547C172.777 38.3736 172.733 38.567 172.645 38.7312C172.554 38.8918 172.427 39.0158 172.266 39.0997C172.105 39.1909 171.912 39.2311 171.697 39.2311C171.478 39.2311 171.292 39.1909 171.128 39.0997C170.967 39.0158 170.836 38.8918 170.748 38.7312C170.661 38.567 170.613 38.3736 170.613 38.1547Z" fill="#D5D5D5"/>
</g>
<defs>
<clipPath id="clip0_3669_199">
<rect width="172.777" height="40" fill="white"/>
</clipPath>
</defs>
</svg>
