<svg width="94" height="80" viewBox="0 0 94 80" fill="none" xmlns="http://www.w3.org/2000/svg">
<g clip-path="url(#clip0_3669_283)">
<path d="M19.9402 0L13.7627 15.9156L7.58792 0H0.00012207V25.4589H5.41326V7.09973L12.5824 25.4589H14.9452L22.1117 7.09973V25.4589H27.5655V0H19.9407H19.9402ZM85.897 30.8715L79.7201 46.7871L73.5447 30.872H65.9574V56.3306H71.3706V37.9712L78.54 56.3306H80.9025L88.0695 37.9712V56.3306H93.5234V30.8715H85.8975H85.897ZM7.81558 54.4634L5.39847 60.6857L2.98083 54.4634H0.0112145V64.4163H2.13041V57.2389L4.93576 64.4163H5.86092L8.66574 57.2389V64.4163H10.7997V54.4634H7.81558Z" fill="#F4F4F4"/>
<mask id="mask0_3669_283" style="mask-type:luminance" maskUnits="userSpaceOnUse" x="0" y="-1" width="94" height="82">
<path d="M0.000488281 -0.000648499H93.5802V80.0007H0.000488281V-0.000648499Z" fill="white"/>
</mask>
<g mask="url(#mask0_3669_283)">
<path d="M20.514 59.4479C20.514 57.5826 19.3354 56.1796 17.4999 56.1796C15.6495 56.1796 14.4703 57.5826 14.4703 59.4479C14.4703 61.2983 15.6495 62.7162 17.4996 62.7162C19.3351 62.7162 20.514 61.2983 20.514 59.4479ZM12.2917 59.4479C12.2917 56.4486 14.4858 54.2998 17.4999 54.2998C20.4992 54.2998 22.6929 56.4489 22.6929 59.4479C22.6929 62.4472 20.4992 64.596 17.4999 64.596C14.4858 64.596 12.2917 62.4468 12.2917 59.4479ZM26.0639 64.4171V56.3288H23.1541V54.4635H31.0925V56.3288H28.1979V64.4171H26.0639ZM35.1657 64.4171V56.3288H32.2559V54.4635H40.1946V56.3288H37.3V64.4171H35.1657ZM8.66651 79.8214V72.6437L5.86103 79.8214H4.936L2.13052 72.6437V79.8214H0.0117188V69.8679H2.9816L5.39818 76.0909L7.81608 69.8679H10.8005V79.8218L8.66651 79.8214ZM17.0816 71.9874L15.53 76.2702H18.6332L17.0816 71.9874ZM19.8422 79.8214L19.2149 78.1351H14.948L14.321 79.8211H11.9183L15.7535 69.8689H18.4097L22.2449 79.8211H19.8415L19.8422 79.8214ZM22.2736 74.8523C22.2736 71.7787 24.5866 69.7045 27.5862 69.7045C29.7644 69.7045 31.0328 70.8831 31.734 72.1369L29.9136 73.0322C29.4956 72.2267 28.6003 71.5846 27.5862 71.5846C25.7651 71.5846 24.4519 72.9725 24.4519 74.8529C24.4519 76.733 25.7651 78.1206 27.5858 78.1206C28.6 78.1206 29.4953 77.4788 29.9133 76.673L31.7336 77.5534C31.0331 78.7924 29.7647 80.0007 27.5865 80.0007C24.5866 80.0007 22.2736 77.9116 22.2736 74.8526M40.2095 74.8374C40.2095 73.0917 39.1349 71.7341 37.1056 71.7341L35.2852 71.7335V77.9572H37.091C39.0603 77.9572 40.2095 76.5392 40.2095 74.8384M33.1657 79.8224V69.8689H37.091C40.2095 69.8689 42.3732 71.854 42.3732 74.8384C42.3732 77.8532 40.2095 79.8228 37.1056 79.8228H33.1657V79.8224ZM51.7282 74.8523C51.7282 72.987 50.5496 71.5846 48.7141 71.5846C46.8637 71.5846 45.6844 72.9877 45.6844 74.8526C45.6844 76.703 46.8637 78.1206 48.7137 78.1206C50.5493 78.1206 51.7282 76.703 51.7282 74.8523ZM43.5059 74.8523C43.5059 71.8533 45.6999 69.7045 48.7141 69.7045C51.7133 69.7045 53.9071 71.8537 53.9071 74.8526C53.9067 77.8515 51.7127 80.0007 48.7137 80.0007C45.6996 80.0007 43.5059 77.8515 43.5059 74.8526M62.2175 79.8214L57.4722 73.3303V79.8214H55.3534V69.8679H57.5323L62.1429 76.1206V69.8679H64.2624V79.8218H62.2179L62.2175 79.8214ZM70.5584 71.9874L69.0067 76.2699H72.11L70.5584 71.9874ZM73.3189 79.8214L72.6917 78.1351H68.424L67.7981 79.8211H65.3954L69.2306 69.8682H71.8868L75.721 79.8211H73.3183L73.3189 79.8214ZM76.8695 79.8214V69.8679H79.0032V77.9562H83.2114V79.8214H76.8695ZM91.4179 74.8374C91.4179 73.0917 90.3433 71.7341 88.3139 71.7341L86.4939 71.7335V77.9572H88.2998C90.269 77.9572 91.4182 76.5392 91.4182 74.8384M84.3748 79.8224V69.8689H88.3001C91.4185 69.8689 93.5822 71.854 93.5822 74.8384C93.5822 77.8532 91.4185 79.8228 88.3146 79.8228H84.3745L84.3748 79.8224Z" fill="#F4F4F4"/>
</g>
</g>
<defs>
<clipPath id="clip0_3669_283">
<rect width="93.5798" height="80" fill="white"/>
</clipPath>
</defs>
</svg>
