<svg width="162" height="44" viewBox="0 0 162 44" fill="none" xmlns="http://www.w3.org/2000/svg">
<mask id="mask0_3669_300" style="mask-type:luminance" maskUnits="userSpaceOnUse" x="0" y="0" width="162" height="44">
<path d="M0.230713 0.523804H161.769V43.3829H0.230713V0.523804Z" fill="white"/>
</mask>
<g mask="url(#mask0_3669_300)">
<path d="M115.735 31.2441C115.735 32.3646 115.082 33.2984 113.681 33.2984C112.28 33.2984 111.627 32.3646 111.627 31.2441V24.3344C111.627 22.4669 110.693 20.8795 108.545 20.8795C106.958 20.8795 105.838 21.8133 104.997 22.4669V31.2441C104.997 32.3646 104.344 33.2984 102.943 33.2984C101.542 33.2984 100.889 32.3646 100.889 31.2441V17.9849H104.437L104.717 19.759C105.371 19.1988 107.238 17.518 110.133 17.518C112.747 17.518 115.829 19.012 115.829 22.9337V31.2441H115.735ZM76.5179 29.0031C76.5179 29.8435 77.1715 30.4037 77.9185 30.4037C79.2258 30.4037 79.5993 29.3766 80.533 29.3766C81.3734 29.3766 81.8403 30.0302 81.8403 30.6839C81.8403 32.0845 80.1595 33.2984 77.1715 33.2984C73.81 33.2984 72.316 31.3375 72.316 28.8164V20.8795H69.6082V17.8915H72.316V14.53L76.5179 13.4095V17.9849H82.027L80.9999 20.9729H76.5179V29.0031ZM124.232 29.0031C124.232 29.8435 124.886 30.4037 125.633 30.4037C126.94 30.4037 127.314 29.3766 128.341 29.3766C129.181 29.3766 129.648 30.0302 129.648 30.6839C129.648 32.0845 127.967 33.2984 124.979 33.2984C121.618 33.2984 120.124 31.3375 120.124 28.8164V20.8795H117.416V17.8915H120.124V14.53L124.326 13.4095V17.9849H129.835L128.808 20.9729H124.326L124.232 29.0031ZM53.2676 29.6567C53.2676 28.723 54.0146 28.0694 54.855 28.0694C56.2556 28.0694 57.2827 30.0302 60.8309 30.0302C62.9786 30.0302 64.5659 29.0965 64.5659 27.5091C64.5659 26.1085 63.4454 25.2681 61.6713 24.4277C61.1111 24.1476 60.0839 23.6807 59.4303 23.4006C57.0026 22.2801 54.5748 20.6928 54.5748 17.518C54.5748 14.4366 57.2827 11.8221 62.0448 11.8221C65.4997 11.8221 67.5539 12.7559 68.0208 13.036L66.9937 16.1174C66.4334 15.8373 64.3792 15.0903 62.2316 15.0903C60.6442 15.0903 59.0568 15.8373 59.0568 17.4246C59.0568 18.9186 60.3641 19.5723 62.0448 20.4126C62.6051 20.6928 63.0719 20.8795 63.6322 21.1596C66.2467 22.3735 69.0479 23.7741 69.0479 27.229C69.0479 30.964 65.4997 33.2984 60.8309 33.2984C56.5357 33.2984 53.2676 31.5242 53.2676 29.6567ZM156.073 33.2984C150.658 33.2984 147.483 29.7501 147.483 25.4549C147.483 20.9729 150.751 17.6114 156.073 17.6114C159.155 17.6114 160.835 18.7319 161.116 18.9186L160.182 21.6265C159.902 21.4398 158.501 20.506 156.447 20.506C153.365 20.506 151.778 22.747 151.778 25.4549C151.778 28.1627 153.459 30.4037 156.26 30.4037C158.408 30.4037 159.248 29.0031 160.369 29.0031C161.209 29.0031 161.769 29.6567 161.769 30.4037C161.769 31.8977 159.155 33.2984 156.073 33.2984ZM142.534 29.0965C141.413 29.0965 140.573 30.4971 138.519 30.4971C136.371 30.4971 134.784 28.8164 134.597 26.9489H145.242V26.0151C145.242 21.0663 142.534 17.6114 137.865 17.6114C133.103 17.6114 130.395 20.9729 130.395 25.4549C130.395 29.47 132.823 33.2984 138.425 33.2984C141.6 33.2984 144.028 31.8977 144.028 30.4971C144.028 29.7501 143.561 29.0965 142.534 29.0965ZM137.772 20.506C140.293 20.506 140.947 22.5602 140.947 24.241H134.504C134.504 22.3735 135.437 20.506 137.772 20.506ZM97.0604 28.6296V23.6807C97.0604 20.0391 94.8194 17.6114 89.9639 17.6114C86.6024 17.6114 84.268 18.8253 83.8012 19.1054L85.015 21.6265C85.2952 21.5331 87.256 20.5994 89.1235 20.5994C91.738 20.5994 92.9519 22 92.9519 23.4006V23.5874L90.3374 23.6807C86.509 23.8675 83.2409 25.0814 83.2409 28.6296C83.2409 31.5242 85.5753 33.3917 88.75 33.3917C91.4579 33.3917 92.8585 31.9911 93.3254 31.5242C93.4188 31.8044 93.8856 33.3917 95.8465 33.3917C96.7803 33.3917 97.3405 33.0182 97.3405 32.1779C97.3405 31.1507 97.0604 30.5905 97.0604 28.6296ZM92.8585 29.2832C92.5784 29.47 91.4579 30.4037 89.8705 30.4037C88.3765 30.4037 87.4428 29.47 87.4428 28.2561C87.4428 26.8555 88.5633 26.2019 90.8976 26.1085L92.8585 26.0151V29.2832Z" fill="#EDEDED"/>
</g>
</svg>
