<svg width="105" height="50" viewBox="0 0 105 50" fill="none" xmlns="http://www.w3.org/2000/svg">
<g clip-path="url(#clip0_3669_260)">
<mask id="mask0_3669_260" style="mask-type:luminance" maskUnits="userSpaceOnUse" x="-678" y="-998" width="831" height="1075">
<path d="M-677.186 76.1697H152.311V-997.298H-677.186V76.1697Z" fill="white"/>
</mask>
<g mask="url(#mask0_3669_260)">
<path d="M96.3816 13.7456C96.3816 8.18584 94.3485 3.5477 91.6892 0.508924H99.4163C101.949 3.59785 103.518 8.85269 103.518 13.7456V13.7633C103.518 18.6643 101.945 23.9273 99.4041 27.0149H91.677C94.3417 23.9761 96.3816 19.3326 96.3816 13.7633V13.7456Z" fill="#EF3427"/>
</g>
<path d="M7.63087 0.508156H0.508301L10.2834 27.0182H14.069L15.7374 22.4925L7.63087 0.508156Z" fill="#EF3427"/>
<path d="M26.7387 0.508156H19.6161L29.3911 27.0182H33.1767L34.8452 22.4925L26.7387 0.508156Z" fill="#EF3427"/>
<path d="M81.1467 49.4917V24.5417V23.8966V21.9218V4.67173V3.30821V2.51938V0.509335H74.3318V21.9218V49.4917H81.1467Z" fill="#EF3427"/>
<mask id="mask1_3669_260" style="mask-type:luminance" maskUnits="userSpaceOnUse" x="-678" y="-998" width="831" height="1075">
<path d="M-677.186 76.1697H152.311V-997.298H-677.186V76.1697Z" fill="white"/>
</mask>
<g mask="url(#mask1_3669_260)">
<path d="M42.0755 4.4409C42.1866 3.08281 42.432 1.74504 42.9958 0.508924H49.2292C48.7088 1.44956 48.2195 3.16413 48.7752 4.86785C49.278 6.40757 50.3434 7.458 51.6866 8.32273C53.2778 9.34741 55.1347 9.91803 56.8397 10.7136C58.6289 11.5458 60.3705 12.4174 61.8655 13.7158C64.0382 15.6025 65.3597 17.8403 65.5752 20.7327C65.601 21.0783 65.6118 21.4253 65.6118 21.7723C65.6118 23.5844 65.3272 25.3803 64.518 27.0149H58.1179C58.7468 25.9441 59.2428 24.4844 59.152 23.1371C58.9284 19.7975 54.85 17.9717 51.4345 16.4524C50.914 16.2206 50.403 15.9929 49.9137 15.7652C48.4119 15.0631 46.9386 14.2566 45.6578 13.1926C44.3349 12.0934 43.3292 10.9928 42.7125 9.37858C42.1704 7.9622 41.9725 6.42655 42.0443 4.91665C42.0525 4.75806 42.0619 4.59948 42.0755 4.4409Z" fill="#EF3427"/>
</g>
</g>
<defs>
<clipPath id="clip0_3669_260">
<rect width="104.026" height="50" fill="white"/>
</clipPath>
</defs>
</svg>
