<svg width="28" height="28" viewBox="0 0 28 28" fill="none" xmlns="http://www.w3.org/2000/svg">
<path d="M27.2277 0.772271C26.8712 0.415835 26.2376 0.415835 25.8811 0.772271L13.9999 12.6535L2.11874 0.772271C1.76231 0.415835 1.12865 0.415835 0.77221 0.772271C0.415774 1.12871 0.415774 1.76237 0.77221 2.11881L12.6534 14L0.77221 25.8812C0.415774 26.2376 0.415774 26.8713 0.77221 27.2277C0.970229 27.4257 1.20785 27.5049 1.44548 27.5049C1.6831 27.5049 1.92072 27.4257 2.11874 27.2277L13.9999 15.3465L25.8811 27.2277C26.0791 27.4257 26.3168 27.5049 26.5544 27.5049C26.792 27.5049 27.0296 27.4257 27.2277 27.2277C27.5841 26.8713 27.5841 26.2376 27.2277 25.8812L15.3465 14L27.2277 2.11881C27.5841 1.76237 27.5841 1.16831 27.2277 0.772271Z" fill="#FDFDFD"/>
</svg>
