<svg width="24" height="18" viewBox="0 0 24 18" fill="none" xmlns="http://www.w3.org/2000/svg">
<path d="M22.5 0.5H1.5C1.10218 0.5 0.720644 0.658035 0.43934 0.93934C0.158035 1.22064 0 1.60218 0 2L0 16C0 16.3978 0.158035 16.7794 0.43934 17.0607C0.720644 17.342 1.10218 17.5 1.5 17.5H22.5C22.8978 17.5 23.2794 17.342 23.5607 17.0607C23.842 16.7794 24 16.3978 24 16V2C24 1.60218 23.842 1.22064 23.5607 0.93934C23.2794 0.658035 22.8978 0.5 22.5 0.5ZM22.18 1.5L12 9.37L1.82 1.5H22.18ZM1 15.795V2.13L8.705 8.085L1 15.795ZM1.705 16.5L9.5 8.705L11.69 10.4C11.7774 10.4673 11.8847 10.5038 11.995 10.5038C12.1053 10.5038 12.2126 10.4673 12.3 10.4L14.5 8.705L22.295 16.5H1.705ZM23 15.795L15.295 8.085L23 2.13V15.795Z" fill="#787878"/>
</svg>
