<svg width="18" height="18" viewBox="0 0 18 18" fill="none" xmlns="http://www.w3.org/2000/svg">
<path d="M4.27641 17.5438L0.616245 17.5248C0.612885 17.2389 0.697165 16.1536 0.672525 15.7992C0.644525 15.4038 0.633604 13.8504 0.628564 13.464C0.623804 13.0781 0.654045 11.357 0.663285 10.8765C0.675605 10.2342 0.651245 9.59183 0.651245 8.94951C0.651245 8.01767 0.651245 6.94191 0.651245 6.09603C0.651245 6.09603 3.23677 5.76423 4.20053 6.09603L4.21144 6.68151C4.21004 7.00603 4.2064 8.29851 4.219 8.61435C4.2484 9.34151 4.3086 10.1894 4.27976 10.923C4.2512 11.6554 4.26828 12.6668 4.28732 13.3844C4.32904 14.9639 4.30049 16.0548 4.27641 17.5438ZM3.36024 0.515631C2.22932 0.00715092 0.691565 0.653951 0.354725 1.89855C0.168245 2.58651 0.404565 3.45311 0.948885 3.84651C3.66572 5.80903 6.11265 1.75295 3.36024 0.515631ZM17.7083 12.043C17.7072 11.4617 17.5873 9.58147 17.5557 9.22363C17.5308 8.94195 17.5308 8.94195 17.4414 8.35367C17.3857 7.98715 17.1259 7.66263 16.8772 7.39271C16.1683 6.62271 15.3972 6.27831 14.4373 5.94371C13.653 5.67071 13.027 5.88015 12.2519 5.98291C11.3643 6.09995 10.0002 7.66067 10.0002 7.66067C9.94641 7.29891 10.0002 6.53507 9.94753 6.09351C9.38277 6.05235 8.90593 6.08371 8.30169 6.05823C7.77949 6.03583 7.17777 6.06859 6.48925 6.05823C6.48925 6.05823 6.46349 7.79759 6.45117 8.31391C6.43856 8.83303 6.45648 9.35327 6.45117 9.87267C6.44165 10.8437 6.50716 11.8912 6.54664 12.8692C6.61076 14.4664 6.52368 16.1469 6.5276 17.6584H6.87117C7.96485 17.6584 8.94401 17.6584 10.0382 17.6584C10.0382 17.6584 10.048 16.2018 10.0192 15.7885C9.97721 15.1795 9.98085 11.3049 10.0382 10.5797C10.0956 9.85475 10.864 8.91675 12.0988 8.91983C12.5568 8.92095 13.1742 8.99487 13.5209 9.33003C13.7284 9.53051 14.0081 10.2274 14.0837 10.9568C14.1596 11.6862 14.1212 15.4433 14.1212 17.6203L17.6702 17.6584C17.4543 17.1922 17.7091 12.7063 17.7083 12.043Z" fill="#FDFDFD" fill-opacity="0.4"/>
</svg>
